<?xml version="1.0" encoding="UTF-8"?>
<!DOCTYPE svg PUBLIC "-//W3C//DTD SVG 1.1//EN" "http://www.w3.org/Graphics/SVG/1.1/DTD/svg11.dtd">
<svg xmlns="http://www.w3.org/2000/svg" version="1.1" width="384px" height="384px" style="shape-rendering:geometricPrecision; text-rendering:geometricPrecision; image-rendering:optimizeQuality; fill-rule:evenodd; clip-rule:evenodd" xmlns:xlink="http://www.w3.org/1999/xlink">
<g><path style="opacity:1" fill="#010000" d="M -0.5,-0.5 C 58.8333,-0.5 118.167,-0.5 177.5,-0.5C 104.848,7.40317 51.6813,43.7365 18,108.5C 7.80482,130.56 1.63815,153.56 -0.5,177.5C -0.5,118.167 -0.5,58.8333 -0.5,-0.5 Z"/></g>
<g><path style="opacity:1" fill="#010000" d="M 205.5,-0.5 C 264.833,-0.5 324.167,-0.5 383.5,-0.5C 383.5,58.8333 383.5,118.167 383.5,177.5C 375.593,104.836 339.259,51.6694 274.5,18C 252.338,8.21175 229.338,2.04508 205.5,-0.5 Z"/></g>
<g><path style="opacity:1" fill="#000000" d="M 383.5,212.5 C 383.5,269.5 383.5,326.5 383.5,383.5C 324.167,383.5 264.833,383.5 205.5,383.5C 275.495,376.096 327.662,341.763 362,280.5C 372.502,258.749 379.669,236.082 383.5,212.5 Z"/></g>
<g><path style="opacity:1" fill="#010000" d="M -0.5,205.5 C 7.40131,278.147 43.7346,331.314 108.5,365C 130.581,375.101 153.581,381.268 177.5,383.5C 118.167,383.5 58.8333,383.5 -0.5,383.5C -0.5,324.167 -0.5,264.833 -0.5,205.5 Z"/></g>
<g><path style="opacity:1" fill="#af0102" d="M 177.5,-0.5 C 186.833,-0.5 196.167,-0.5 205.5,-0.5C 229.338,2.04508 252.338,8.21175 274.5,18C 339.259,51.6694 375.593,104.836 383.5,177.5C 383.5,189.167 383.5,200.833 383.5,212.5C 379.669,236.082 372.502,258.749 362,280.5C 327.662,341.763 275.495,376.096 205.5,383.5C 196.167,383.5 186.833,383.5 177.5,383.5C 153.581,381.268 130.581,375.101 108.5,365C 43.7346,331.314 7.40131,278.147 -0.5,205.5C -0.5,196.167 -0.5,186.833 -0.5,177.5C 1.63815,153.56 7.80482,130.56 18,108.5C 51.6813,43.7365 104.848,7.40317 177.5,-0.5 Z"/></g>
<g><path style="opacity:1" fill="#262627" d="M 177.5,6.5 C 261.094,4.69161 321.928,40.6916 360,114.5C 384.779,173.796 381.446,231.463 350,287.5C 306.225,353.298 244.725,382.465 165.5,375C 87.8016,360.635 36.9683,315.802 13,240.5C -4.61633,163.354 16.217,98.8542 75.5,47C 105.577,23.5862 139.577,10.0862 177.5,6.5 Z"/></g>
<g><path style="opacity:1" fill="#af0103" d="M 178.5,31.5 C 251.909,29.7671 305.076,61.4337 338,126.5C 362.32,189.239 353.32,246.573 311,298.5C 262.545,347.657 205.045,362.49 138.5,343C 75.4575,317.613 39.9575,271.113 32,203.5C 29.6676,135.649 57.5009,84.4821 115.5,50C 135.459,39.8423 156.459,33.6756 178.5,31.5 Z"/></g>
<g><path style="opacity:1" fill="#363637" d="M 302.5,296.5 C 275.858,324.318 243.192,340.152 204.5,344C 166.202,347.348 131.869,337.515 101.5,314.5C 101.918,313.778 102.584,313.278 103.5,313C 98.385,309.727 93.385,306.227 88.5,302.5C 87.5,301.5 86.5,300.5 85.5,299.5C 86.868,298.406 88.0347,298.74 89,300.5C 90.1769,298.824 91.6769,297.491 93.5,296.5C 94.1924,297.025 94.6924,297.692 95,298.5C 101.771,297.587 108.605,296.753 115.5,296C 118.149,295.548 120.649,294.714 123,293.5C 124.401,295.192 126.234,295.859 128.5,295.5C 128.155,298.488 129.488,299.821 132.5,299.5C 137.458,299.472 141.958,298.138 146,295.5C 156.797,297.388 166.297,299.055 174.5,300.5C 184.57,299.83 194.57,298.997 204.5,298C 203.833,298.333 203.167,298.667 202.5,299C 210.518,299.663 218.351,298.83 226,296.5C 226.5,297 227,297.5 227.5,298C 229.833,298.167 232.167,298.333 234.5,298.5C 248.852,298.496 263.519,298.163 278.5,297.5C 280.885,299.539 283.052,299.539 285,297.5C 286.13,298.114 287.463,298.114 289,297.5C 291.794,297.604 294.127,298.604 296,300.5C 296.442,298.321 297.442,297.655 299,298.5C 299.567,296.017 300.733,295.35 302.5,296.5 Z"/></g>
<g><path style="opacity:1" fill="#3b3b3b" d="M 61.5,271.5 C 64.7401,273.027 68.2401,273.694 72,273.5C 77.9443,273.442 83.7776,273.108 89.5,272.5C 92.0635,272.737 92.0635,273.237 89.5,274C 90.4162,274.374 91.2496,274.874 92,275.5C 92.7504,274.874 93.5838,274.374 94.5,274C 105.205,273.686 115.705,273.186 126,272.5C 127.333,273.167 128.667,273.833 130,274.5C 135.455,273.492 140.788,272.825 146,272.5C 154.849,273.287 163.683,274.287 172.5,275.5C 173.442,275.392 174.275,275.059 175,274.5C 177.725,276.758 180.725,277.091 184,275.5C 188.232,276.671 192.232,277.671 196,278.5C 197.811,277.576 197.645,276.743 195.5,276C 197.788,275.054 199.955,273.887 202,272.5C 207.64,274.814 213.14,275.148 218.5,273.5C 219.749,275.475 221.249,275.809 223,274.5C 225.554,275.771 228.387,276.438 231.5,276.5C 238.84,275.332 246.174,275.332 253.5,276.5C 256.289,276.259 258.956,275.592 261.5,274.5C 264.544,275.641 267.711,276.308 271,276.5C 278.547,275.824 286.047,274.824 293.5,273.5C 299.35,274.578 305.183,274.578 311,273.5C 313.222,275.194 315.722,276.194 318.5,276.5C 314.117,283.936 308.784,290.603 302.5,296.5C 300.733,295.35 299.567,296.017 299,298.5C 297.442,297.655 296.442,298.321 296,300.5C 294.127,298.604 291.794,297.604 289,297.5C 287.463,298.114 286.13,298.114 285,297.5C 283.052,299.539 280.885,299.539 278.5,297.5C 263.519,298.163 248.852,298.496 234.5,298.5C 232.167,298.333 229.833,298.167 227.5,298C 227,297.5 226.5,297 226,296.5C 218.351,298.83 210.518,299.663 202.5,299C 203.167,298.667 203.833,298.333 204.5,298C 194.57,298.997 184.57,299.83 174.5,300.5C 166.297,299.055 156.797,297.388 146,295.5C 141.958,298.138 137.458,299.472 132.5,299.5C 129.488,299.821 128.155,298.488 128.5,295.5C 126.234,295.859 124.401,295.192 123,293.5C 120.649,294.714 118.149,295.548 115.5,296C 108.605,296.753 101.771,297.587 95,298.5C 94.6924,297.692 94.1924,297.025 93.5,296.5C 91.6769,297.491 90.1769,298.824 89,300.5C 88.0347,298.74 86.868,298.406 85.5,299.5C 86.5,300.5 87.5,301.5 88.5,302.5C 93.385,306.227 98.385,309.727 103.5,313C 102.584,313.278 101.918,313.778 101.5,314.5C 84.6909,303.359 71.3575,289.026 61.5,271.5 Z"/></g>
<g><path style="opacity:1" fill="#414140" d="M 322.5,269.5 C 321.937,272.295 320.604,274.628 318.5,276.5C 315.722,276.194 313.222,275.194 311,273.5C 305.183,274.578 299.35,274.578 293.5,273.5C 286.047,274.824 278.547,275.824 271,276.5C 267.711,276.308 264.544,275.641 261.5,274.5C 258.956,275.592 256.289,276.259 253.5,276.5C 246.174,275.332 238.84,275.332 231.5,276.5C 228.387,276.438 225.554,275.771 223,274.5C 221.249,275.809 219.749,275.475 218.5,273.5C 213.14,275.148 207.64,274.814 202,272.5C 199.955,273.887 197.788,275.054 195.5,276C 197.645,276.743 197.811,277.576 196,278.5C 192.232,277.671 188.232,276.671 184,275.5C 180.725,277.091 177.725,276.758 175,274.5C 174.275,275.059 173.442,275.392 172.5,275.5C 163.683,274.287 154.849,273.287 146,272.5C 140.788,272.825 135.455,273.492 130,274.5C 128.667,273.833 127.333,273.167 126,272.5C 115.705,273.186 105.205,273.686 94.5,274C 93.5838,274.374 92.7504,274.874 92,275.5C 91.2496,274.874 90.4162,274.374 89.5,274C 92.0635,273.237 92.0635,272.737 89.5,272.5C 83.7776,273.108 77.9443,273.442 72,273.5C 68.2401,273.694 64.7401,273.027 61.5,271.5C 60.5987,270.71 59.9321,269.71 59.5,268.5C 60.7736,267.811 60.7736,266.977 59.5,266C 61.0609,265.682 62.2276,264.849 63,263.5C 105.254,264.171 147.254,264.838 189,265.5C 191.432,265.237 193.432,264.237 195,262.5C 201.592,263.984 208.259,264.984 215,265.5C 233.845,265.37 253.012,264.703 272.5,263.5C 275.034,264.788 277.534,264.788 280,263.5C 281.441,264.26 282.941,264.926 284.5,265.5C 296.784,264.542 308.95,264.208 321,264.5C 321.5,264.667 322,264.833 322.5,265C 322.034,266.299 322.034,267.799 322.5,269.5 Z"/></g>
<g><path style="opacity:1" fill="#474848" d="M 52.5,254.5 C 53.8333,254.5 55.1667,254.5 56.5,254.5C 68.1667,254.5 79.8333,254.5 91.5,254.5C 92.5,254.5 93.5,254.5 94.5,254.5C 158.833,254.5 223.167,254.5 287.5,254.5C 288.833,254.5 290.167,254.5 291.5,254.5C 303.167,254.5 314.833,254.5 326.5,254.5C 327.833,254.5 329.167,254.5 330.5,254.5C 328.593,259.984 325.927,264.984 322.5,269.5C 322.034,267.799 322.034,266.299 322.5,265C 322,264.833 321.5,264.667 321,264.5C 308.95,264.208 296.784,264.542 284.5,265.5C 282.941,264.926 281.441,264.26 280,263.5C 277.534,264.788 275.034,264.788 272.5,263.5C 253.012,264.703 233.845,265.37 215,265.5C 208.259,264.984 201.592,263.984 195,262.5C 193.432,264.237 191.432,265.237 189,265.5C 147.254,264.838 105.254,264.171 63,263.5C 62.2276,264.849 61.0609,265.682 59.5,266C 60.7736,266.977 60.7736,267.811 59.5,268.5C 56.6589,264.151 54.3255,259.484 52.5,254.5 Z"/></g>
<g><path style="opacity:1" fill="#3f2d35" d="M 179.5,243.5 C 180.479,246.625 180.813,249.958 180.5,253.5C 187.508,253.666 194.508,253.5 201.5,253C 202.38,251.644 202.714,250.144 202.5,248.5C 202.833,248.5 203.167,248.5 203.5,248.5C 203.5,249.5 203.5,250.5 203.5,251.5C 231.169,251.333 258.835,251.5 286.5,252C 287.252,252.671 287.586,253.504 287.5,254.5C 223.167,254.5 158.833,254.5 94.5,254.5C 94.9528,253.542 95.6195,252.708 96.5,252C 124.165,251.5 151.831,251.333 179.5,251.5C 179.5,250.5 179.5,249.5 179.5,248.5C 179.5,246.833 179.5,245.167 179.5,243.5 Z"/></g>
<g><path style="opacity:1" fill="#292729" d="M 332.5,248.5 C 332.396,250.703 331.73,252.703 330.5,254.5C 329.167,254.5 327.833,254.5 326.5,254.5C 326.5,253.5 326.5,252.5 326.5,251.5C 314.833,251.5 303.167,251.5 291.5,251.5C 291.5,252.5 291.5,253.5 291.5,254.5C 290.167,254.5 288.833,254.5 287.5,254.5C 287.586,253.504 287.252,252.671 286.5,252C 258.835,251.5 231.169,251.333 203.5,251.5C 203.5,250.5 203.5,249.5 203.5,248.5C 224.472,243.724 245.472,243.557 266.5,248C 288.497,248.5 310.497,248.667 332.5,248.5 Z"/></g>
<g><path style="opacity:1" fill="#040404" d="M 326.5,254.5 C 314.833,254.5 303.167,254.5 291.5,254.5C 291.5,253.5 291.5,252.5 291.5,251.5C 303.167,251.5 314.833,251.5 326.5,251.5C 326.5,252.5 326.5,253.5 326.5,254.5 Z"/></g>
<g><path style="opacity:1" fill="#282729" d="M 179.5,248.5 C 179.5,249.5 179.5,250.5 179.5,251.5C 151.831,251.333 124.165,251.5 96.5,252C 95.6195,252.708 94.9528,253.542 94.5,254.5C 93.5,254.5 92.5,254.5 91.5,254.5C 91.5,253.5 91.5,252.5 91.5,251.5C 79.8333,251.5 68.1667,251.5 56.5,251.5C 56.5,252.5 56.5,253.5 56.5,254.5C 55.1667,254.5 53.8333,254.5 52.5,254.5C 51.4625,253.07 50.7959,251.403 50.5,249.5C 72.3295,248.668 94.3295,248.168 116.5,248C 125.811,246.651 135.144,245.484 144.5,244.5C 156.266,245.119 167.933,246.452 179.5,248.5 Z"/></g>
<g><path style="opacity:1" fill="#040404" d="M 91.5,254.5 C 79.8333,254.5 68.1667,254.5 56.5,254.5C 56.5,253.5 56.5,252.5 56.5,251.5C 68.1667,251.5 79.8333,251.5 91.5,251.5C 91.5,252.5 91.5,253.5 91.5,254.5 Z"/></g>
<g><path style="opacity:1" fill="#494a4b" d="M 235.5,225.5 C 235.082,226.222 234.416,226.722 233.5,227C 235.473,227.495 237.473,227.662 239.5,227.5C 239.343,228.873 239.51,230.207 240,231.5C 240.77,230.402 241.603,230.402 242.5,231.5C 244.292,232.309 246.292,232.809 248.5,233C 246.5,233.333 244.5,233.667 242.5,234C 246.226,235.043 245.893,235.543 241.5,235.5C 241.567,236.959 241.234,238.292 240.5,239.5C 240.5,240.5 240.5,241.5 240.5,242.5C 244.514,242.666 248.514,242.499 252.5,242C 254.076,241.56 255.41,240.727 256.5,239.5C 257.354,240.522 258.354,241.355 259.5,242C 263.167,242.667 266.833,242.667 270.5,242C 271.252,241.329 271.586,240.496 271.5,239.5C 272.959,239.567 274.292,239.234 275.5,238.5C 278.625,239.479 281.958,239.813 285.5,239.5C 298.999,240.726 312.666,241.726 326.5,242.5C 327.609,242.557 328.609,242.89 329.5,243.5C 330.167,243.5 330.833,243.5 331.5,243.5C 332.833,243.167 334.167,242.833 335.5,242.5C 335.245,244.967 334.245,246.967 332.5,248.5C 310.497,248.667 288.497,248.5 266.5,248C 245.472,243.557 224.472,243.724 203.5,248.5C 203.167,248.5 202.833,248.5 202.5,248.5C 202.338,246.473 202.505,244.473 203,242.5C 203.383,241.944 203.883,241.611 204.5,241.5C 207.113,242.993 209.113,242.326 210.5,239.5C 213.152,239.59 215.485,238.924 217.5,237.5C 218.833,237.5 220.167,237.5 221.5,237.5C 221.232,235.901 221.566,234.568 222.5,233.5C 222.5,233.167 222.5,232.833 222.5,232.5C 224.527,232.662 226.527,232.495 228.5,232C 227.584,231.722 226.918,231.222 226.5,230.5C 225.041,230.433 223.708,230.766 222.5,231.5C 221.711,231.217 221.044,230.717 220.5,230C 221.736,228.915 223.069,228.082 224.5,227.5C 227.073,227.852 229.406,227.352 231.5,226C 230.167,225.667 228.833,225.333 227.5,225C 230.192,224.57 232.859,224.737 235.5,225.5 Z"/></g>
<g><path style="opacity:1" fill="#4b4c4d" d="M 129.5,224.5 C 130.791,225.473 130.791,226.473 129.5,227.5C 131.647,228.835 133.647,228.669 135.5,227C 134.5,226.667 133.5,226.333 132.5,226C 135.688,225.504 138.521,226.337 141,228.5C 142.07,228.472 142.903,228.139 143.5,227.5C 143.435,227.062 143.601,226.728 144,226.5C 145.11,228.037 146.61,228.703 148.5,228.5C 150.621,228.675 152.621,228.341 154.5,227.5C 154.527,229.199 155.194,230.533 156.5,231.5C 153.102,231.18 149.768,231.513 146.5,232.5C 155.764,233.652 155.764,234.485 146.5,235C 150.167,235.667 153.833,235.667 157.5,235C 156.833,234.667 156.167,234.333 155.5,234C 156.756,233.583 157.423,232.75 157.5,231.5C 158.285,233.374 158.952,235.374 159.5,237.5C 157.833,237.5 156.167,237.5 154.5,237.5C 151.446,236.679 148.446,236.679 145.5,237.5C 146.902,238.842 146.569,239.676 144.5,240C 146.382,240.198 148.048,240.698 149.5,241.5C 147.712,241.215 146.045,241.548 144.5,242.5C 147,242.833 149.5,243.167 152,243.5C 154.95,243.432 157.617,242.766 160,241.5C 161.18,242.684 162.68,243.351 164.5,243.5C 169.317,242.924 173.984,242.591 178.5,242.5C 179.167,242.5 179.5,242.833 179.5,243.5C 179.5,245.167 179.5,246.833 179.5,248.5C 167.933,246.452 156.266,245.119 144.5,244.5C 135.144,245.484 125.811,246.651 116.5,248C 94.3295,248.168 72.3295,248.668 50.5,249.5C 48.9348,247.491 47.9348,245.157 47.5,242.5C 47.4346,242.062 47.6012,241.728 48,241.5C 48.8159,242.823 49.9826,243.489 51.5,243.5C 52.1667,243.5 52.8333,243.5 53.5,243.5C 54.391,242.89 55.391,242.557 56.5,242.5C 70.1877,241.737 83.8544,240.737 97.5,239.5C 100.939,239.747 104.272,239.414 107.5,238.5C 109.735,238.795 111.735,238.461 113.5,237.5C 113.833,237.5 114.167,237.5 114.5,237.5C 116.693,238.797 119.027,238.797 121.5,237.5C 119.955,236.548 118.288,236.215 116.5,236.5C 116.5,236.167 116.5,235.833 116.5,235.5C 118.5,235.5 120.5,235.5 122.5,235.5C 123.183,237.176 124.517,237.843 126.5,237.5C 128.185,238.844 129.852,238.677 131.5,237C 130.207,236.51 128.873,236.343 127.5,236.5C 127.5,235.5 127.5,234.5 127.5,233.5C 132.361,233.937 137.028,233.437 141.5,232C 138.5,231.667 135.5,231.333 132.5,231C 132.833,230.667 133.167,230.333 133.5,230C 131.833,229.333 130.167,229.333 128.5,230C 132.226,231.043 131.893,231.543 127.5,231.5C 127.586,230.504 127.252,229.671 126.5,229C 127.897,227.69 128.897,226.19 129.5,224.5 Z"/></g>
<g><path style="opacity:1" fill="#ef0302" d="M 195.5,169.5 C 202.666,168.919 208.999,170.919 214.5,175.5C 215.075,177.342 214.909,179.342 214,181.5C 211.352,185.314 209.185,189.314 207.5,193.5C 208.486,196.76 210.819,198.427 214.5,198.5C 214.5,200.5 214.5,202.5 214.5,204.5C 217.228,204.171 219.562,204.837 221.5,206.5C 216.167,206.5 210.833,206.5 205.5,206.5C 205.5,207.5 205.5,208.5 205.5,209.5C 213.99,210.33 222.657,210.83 231.5,211C 223.782,211.188 216.115,211.854 208.5,213C 208.833,213.333 209.167,213.667 209.5,214C 207.942,214.21 206.609,214.71 205.5,215.5C 205.5,215.833 205.5,216.167 205.5,216.5C 204.662,216.842 204.328,217.508 204.5,218.5C 204.5,219.167 204.5,219.833 204.5,220.5C 204.5,220.833 204.5,221.167 204.5,221.5C 204.5,222.833 204.5,224.167 204.5,225.5C 203.209,229.601 203.209,233.601 204.5,237.5C 204.5,238.833 204.5,240.167 204.5,241.5C 203.883,241.611 203.383,241.944 203,242.5C 202.505,244.473 202.338,246.473 202.5,248.5C 202.714,250.144 202.38,251.644 201.5,253C 194.508,253.5 187.508,253.666 180.5,253.5C 180.813,249.958 180.479,246.625 179.5,243.5C 179.5,242.833 179.167,242.5 178.5,242.5C 178.5,242.167 178.5,241.833 178.5,241.5C 179.051,238.193 179.384,234.86 179.5,231.5C 180.774,229.007 181.44,226.341 181.5,223.5C 179.821,223.715 178.821,223.048 178.5,221.5C 177.432,220.566 176.099,220.232 174.5,220.5C 175.5,219.833 176.5,219.167 177.5,218.5C 178.404,217.791 178.737,216.791 178.5,215.5C 178.468,212.067 178.801,208.567 179.5,205C 179.507,203.188 178.84,201.688 177.5,200.5C 178.859,198.694 178.525,197.194 176.5,196C 177.516,195.481 178.182,194.647 178.5,193.5C 177.449,187.957 175.782,182.624 173.5,177.5C 173.608,176.558 173.941,175.725 174.5,175C 175.833,175 177.167,175 178.5,175C 179.634,173.984 179.301,173.317 177.5,173C 180.144,170.983 183.144,170.15 186.5,170.5C 186.198,173.059 186.532,175.393 187.5,177.5C 187.611,178.117 187.944,178.617 188.5,179C 190.5,179.667 192.5,179.667 194.5,179C 195.451,175.943 195.784,172.777 195.5,169.5 Z"/></g>
<g><path style="opacity:1" fill="#44273b" d="M 335.5,242.5 C 334.167,242.833 332.833,243.167 331.5,243.5C 331.667,224.497 331.5,205.497 331,186.5C 330.617,185.944 330.117,185.611 329.5,185.5C 328.5,184.833 327.5,184.167 326.5,183.5C 314.5,183.5 302.5,183.5 290.5,183.5C 289.391,183.557 288.391,183.89 287.5,184.5C 284.454,181.643 280.787,179.81 276.5,179C 266.488,179.001 256.488,179.501 246.5,180.5C 253.163,164.171 260.663,148.171 269,132.5C 270.149,129.607 270.649,126.607 270.5,123.5C 265.819,123.669 261.152,124.002 256.5,124.5C 252.878,124.322 249.544,124.989 246.5,126.5C 245.833,126.5 245.167,126.5 244.5,126.5C 244.389,125.883 244.056,125.383 243.5,125C 237.843,124.905 232.176,125.072 226.5,125.5C 231.833,124.5 237.167,123.5 242.5,122.5C 245.059,122.802 247.393,122.468 249.5,121.5C 255.84,121.151 262.173,120.651 268.5,120C 269.416,119.722 270.082,119.222 270.5,118.5C 271.5,118.5 272.5,118.5 273.5,118.5C 273.33,117.178 273.663,116.011 274.5,115C 272.5,114.667 270.5,114.333 268.5,114C 270.9,113.814 273.234,113.314 275.5,112.5C 275.833,111.833 276.167,111.167 276.5,110.5C 270.833,109.167 265.167,109.167 259.5,110.5C 259.006,112.026 258.339,113.359 257.5,114.5C 256.432,113.566 255.099,113.232 253.5,113.5C 254.577,110.693 255.577,107.86 256.5,105C 251.35,103.48 248.35,105.314 247.5,110.5C 246.277,111.614 244.944,111.781 243.5,111C 244.815,109.605 244.481,108.605 242.5,108C 246.921,106.151 247.087,104.984 243,104.5C 241.833,104.833 240.667,105.167 239.5,105.5C 238.58,109.015 236.913,112.015 234.5,114.5C 230.5,114.5 226.5,114.5 222.5,114.5C 223.806,110.081 226.806,108.414 231.5,109.5C 231.421,108.07 231.754,106.736 232.5,105.5C 226.528,104.336 220.528,104.17 214.5,105C 213.3,107.677 211.633,107.677 209.5,105C 200.843,104.333 195.176,108.167 192.5,116.5C 192.5,116.833 192.5,117.167 192.5,117.5C 191.833,117.5 191.167,117.5 190.5,117.5C 190.5,117.167 190.5,116.833 190.5,116.5C 191.817,114.061 192.817,111.561 193.5,109C 192.304,106.148 190.137,104.648 187,104.5C 183.991,105.003 181.158,106.003 178.5,107.5C 176.457,110.011 174.791,112.678 173.5,115.5C 172.167,115.5 170.833,115.5 169.5,115.5C 170.361,111.974 171.694,108.641 173.5,105.5C 171.579,104.359 169.579,104.192 167.5,105C 165.833,106.667 164.167,108.333 162.5,110C 163.5,110.333 164.5,110.667 165.5,111C 162.251,111.003 159.584,112.17 157.5,114.5C 156.737,113.732 155.737,113.232 154.5,113C 155.5,112.667 156.5,112.333 157.5,112C 150.53,111.331 150.196,110.831 156.5,110.5C 157.16,105.672 155.16,103.839 150.5,105C 148.559,106.816 147.892,108.816 148.5,111C 145.833,111.667 145.833,112.333 148.5,113C 147.263,113.232 146.263,113.732 145.5,114.5C 143.435,114.483 141.435,114.15 139.5,113.5C 137.4,113.523 135.567,112.856 134,111.5C 132.183,110.407 132.35,109.407 134.5,108.5C 138.032,111.369 141.032,110.869 143.5,107C 140.835,105.799 138.002,104.965 135,104.5C 132.714,106.278 129.88,107.945 126.5,109.5C 128.078,110.298 129.744,110.798 131.5,111C 123.5,111.667 123.5,112.333 131.5,113C 129.527,113.495 127.527,113.662 125.5,113.5C 123.5,113.167 121.5,112.833 119.5,112.5C 119.5,111.5 119.5,110.5 119.5,109.5C 116.368,109.784 113.368,110.617 110.5,112C 115.833,112.667 115.833,113.333 110.5,114C 117.167,114.667 117.167,115.333 110.5,116C 111.337,117.011 111.67,118.178 111.5,119.5C 113.292,119.634 114.958,119.301 116.5,118.5C 116.5,119.833 117.167,120.5 118.5,120.5C 123.257,122.792 128.257,123.459 133.5,122.5C 149.792,124.078 166.125,126.078 182.5,128.5C 182.53,129.497 182.03,130.164 181,130.5C 178.566,131.322 176.066,131.656 173.5,131.5C 153.098,129.013 132.764,126.347 112.5,123.5C 112.351,126.607 112.851,129.607 114,132.5C 122.337,148.171 129.837,164.171 136.5,180.5C 126.505,179.592 116.505,179.092 106.5,179C 102.01,179.426 98.3435,181.259 95.5,184.5C 94.609,183.89 93.609,183.557 92.5,183.5C 80.5,183.5 68.5,183.5 56.5,183.5C 54.9731,183.427 53.9731,184.094 53.5,185.5C 52.8826,185.611 52.3826,185.944 52,186.5C 51.5001,205.497 51.3334,224.497 51.5,243.5C 49.9826,243.489 48.8159,242.823 48,241.5C 47.6012,241.728 47.4346,242.062 47.5,242.5C 27.5825,178.748 41.5825,123.582 89.5,77C 133.879,40.19 183.879,29.8566 239.5,46C 296.736,67.5734 331.236,108.407 343,168.5C 346.58,193.846 344.08,218.512 335.5,242.5 Z"/></g>
<g><path style="opacity:1" fill="#656264" d="M 154.5,237.5 C 156.167,237.5 157.833,237.5 159.5,237.5C 161.167,237.5 162.833,237.5 164.5,237.5C 164.586,238.496 164.252,239.329 163.5,240C 165.387,240.78 167.054,240.613 168.5,239.5C 169.5,239.5 170.5,239.5 171.5,239.5C 173.265,240.461 175.265,240.795 177.5,240.5C 177.5,241.167 177.833,241.5 178.5,241.5C 178.5,241.833 178.5,242.167 178.5,242.5C 173.984,242.591 169.317,242.924 164.5,243.5C 162.68,243.351 161.18,242.684 160,241.5C 157.617,242.766 154.95,243.432 152,243.5C 149.5,243.167 147,242.833 144.5,242.5C 146.045,241.548 147.712,241.215 149.5,241.5C 152.408,242.569 155.408,242.736 158.5,242C 149.236,241.485 149.236,240.652 158.5,239.5C 157.726,238.289 156.893,238.289 156,239.5C 155.283,238.956 154.783,238.289 154.5,237.5 Z"/></g>
<g><path style="opacity:1" fill="#f3d0c0" d="M 210.5,239.5 C 209.113,242.326 207.113,242.993 204.5,241.5C 205.404,240.791 205.737,239.791 205.5,238.5C 207.415,238.216 209.081,238.549 210.5,239.5 Z"/></g>
<g><path style="opacity:1" fill="#f87c6d" d="M 181.5,240.5 C 183.167,240.5 184.833,240.5 186.5,240.5C 186.03,241.693 185.03,242.36 183.5,242.5C 181.024,242.767 180.357,242.101 181.5,240.5 Z"/></g>
<g><path style="opacity:1" fill="#e3e3e2" d="M 222.5,238.5 C 226.514,238.334 230.514,238.501 234.5,239C 232.5,239.333 230.5,239.667 228.5,240C 230.883,241.197 230.55,242.03 227.5,242.5C 225.269,241.691 223.602,240.357 222.5,238.5 Z"/></g>
<g><path style="opacity:1" fill="#eaebe9" d="M 125.5,239.5 C 127.199,239.34 128.866,239.506 130.5,240C 128.415,242.139 126.749,241.972 125.5,239.5 Z"/></g>
<g><path style="opacity:1" fill="#c13635" d="M 204.5,237.5 C 205.167,237.5 205.833,237.5 206.5,237.5C 208.167,237.5 209.833,237.5 211.5,237.5C 213.5,237.5 215.5,237.5 217.5,237.5C 215.485,238.924 213.152,239.59 210.5,239.5C 209.081,238.549 207.415,238.216 205.5,238.5C 205.737,239.791 205.404,240.791 204.5,241.5C 204.5,240.167 204.5,238.833 204.5,237.5 Z"/></g>
<g><path style="opacity:1" fill="#fad8e4" d="M 183.5,238.5 C 185.179,238.285 186.179,238.952 186.5,240.5C 184.833,240.5 183.167,240.5 181.5,240.5C 181.833,239.5 182.5,238.833 183.5,238.5 Z"/></g>
<g><path style="opacity:1" fill="#d1d0cf" d="M 154.5,237.5 C 154.783,238.289 155.283,238.956 156,239.5C 156.893,238.289 157.726,238.289 158.5,239.5C 149.236,240.652 149.236,241.485 158.5,242C 155.408,242.736 152.408,242.569 149.5,241.5C 148.048,240.698 146.382,240.198 144.5,240C 146.569,239.676 146.902,238.842 145.5,237.5C 148.446,236.679 151.446,236.679 154.5,237.5 Z"/></g>
<g><path style="opacity:1" fill="#e4e4e3" d="M 107.5,239.5 C 111.514,239.334 115.514,239.501 119.5,240C 117.222,240.986 114.889,241.82 112.5,242.5C 110.241,242.216 108.574,241.216 107.5,239.5 Z"/></g>
<g><path style="opacity:1" fill="#f0ebe7" d="M 265.5,237.5 C 268.833,237.5 272.167,237.5 275.5,237.5C 275.5,237.833 275.5,238.167 275.5,238.5C 274.292,239.234 272.959,239.567 271.5,239.5C 267.486,239.666 263.486,239.499 259.5,239C 261.25,237.681 263.25,237.181 265.5,237.5 Z"/></g>
<g><path style="opacity:1" fill="#fcd0cf" d="M 192.5,238.5 C 194.958,238.227 196.625,239.227 197.5,241.5C 196.277,242.614 194.944,242.781 193.5,242C 194.167,241.667 194.833,241.333 195.5,241C 193.881,240.764 192.881,239.931 192.5,238.5 Z"/></g>
<g><path style="opacity:1" fill="#b32924" d="M 179.5,231.5 C 179.384,234.86 179.051,238.193 178.5,241.5C 177.833,241.5 177.5,241.167 177.5,240.5C 177.423,239.25 176.756,238.417 175.5,238C 176.416,237.722 177.082,237.222 177.5,236.5C 178.434,235.432 178.768,234.099 178.5,232.5C 178.5,231.833 178.833,231.5 179.5,231.5 Z"/></g>
<g><path style="opacity:1" fill="#c62420" d="M 169.5,237.5 C 170.167,237.5 170.833,237.5 171.5,237.5C 171.5,238.167 171.5,238.833 171.5,239.5C 170.5,239.5 169.5,239.5 168.5,239.5C 168.328,238.508 168.662,237.842 169.5,237.5 Z"/></g>
<g><path style="opacity:1" fill="#6b696c" d="M 254.5,236.5 C 258.519,236.354 262.519,236.021 266.5,235.5C 266.167,236.167 265.833,236.833 265.5,237.5C 263.25,237.181 261.25,237.681 259.5,239C 263.486,239.499 267.486,239.666 271.5,239.5C 271.586,240.496 271.252,241.329 270.5,242C 266.833,242.667 263.167,242.667 259.5,242C 258.354,241.355 257.354,240.522 256.5,239.5C 255.41,240.727 254.076,241.56 252.5,242C 248.514,242.499 244.514,242.666 240.5,242.5C 240.5,241.5 240.5,240.5 240.5,239.5C 242.527,239.662 244.527,239.495 246.5,239C 246.034,237.701 246.034,236.201 246.5,234.5C 248.199,234.34 249.866,234.506 251.5,235C 250.5,235.333 249.5,235.667 248.5,236C 249.337,237.011 249.67,238.178 249.5,239.5C 251.167,239.5 252.833,239.5 254.5,239.5C 254.5,238.5 254.5,237.5 254.5,236.5 Z"/></g>
<g><path style="opacity:1" fill="#e1e2e2" d="M 127.5,236.5 C 128.873,236.343 130.207,236.51 131.5,237C 129.852,238.677 128.185,238.844 126.5,237.5C 126.5,236.833 126.833,236.5 127.5,236.5 Z"/></g>
<g><path style="opacity:1" fill="#f0e6e3" d="M 108.5,235.5 C 109.708,236.234 111.041,236.567 112.5,236.5C 112.5,237.167 112.833,237.5 113.5,237.5C 111.735,238.461 109.735,238.795 107.5,238.5C 107.557,237.391 107.89,236.391 108.5,235.5 Z"/></g>
<g><path style="opacity:1" fill="#deb9b3" d="M 169.5,237.5 C 168.662,237.842 168.328,238.508 168.5,239.5C 167.054,240.613 165.387,240.78 163.5,240C 164.252,239.329 164.586,238.496 164.5,237.5C 166.167,236.167 167.833,236.167 169.5,237.5 Z"/></g>
<g><path style="opacity:1" fill="#e8e7e4" d="M 116.5,236.5 C 118.288,236.215 119.955,236.548 121.5,237.5C 119.027,238.797 116.693,238.797 114.5,237.5C 115.492,237.672 116.158,237.338 116.5,236.5 Z"/></g>
<g><path style="opacity:1" fill="#e1e1e2" d="M 222.5,233.5 C 224.199,233.34 225.866,233.506 227.5,234C 226.5,234.333 225.5,234.667 224.5,235C 226.044,235.29 227.377,235.956 228.5,237C 226.527,237.495 224.527,237.662 222.5,237.5C 222.5,236.167 222.5,234.833 222.5,233.5 Z"/></g>
<g><path style="opacity:1" fill="#ec736a" d="M 108.5,231.5 C 109.031,232.795 110.364,233.462 112.5,233.5C 112.5,234.5 112.5,235.5 112.5,236.5C 111.041,236.567 109.708,236.234 108.5,235.5C 108.5,234.167 108.5,232.833 108.5,231.5 Z"/></g>
<g><path style="opacity:1" fill="#e45951" d="M 269.5,232.5 C 270.152,233.725 271.319,234.392 273,234.5C 274.385,234.486 275.551,234.152 276.5,233.5C 277.097,233.735 277.43,234.235 277.5,235C 276.944,236.011 276.278,236.844 275.5,237.5C 272.167,237.5 268.833,237.5 265.5,237.5C 265.833,236.833 266.167,236.167 266.5,235.5C 267.272,234.306 268.272,233.306 269.5,232.5 Z"/></g>
<g><path style="opacity:1" fill="#edeeef" d="M 231.5,233.5 C 233.527,233.338 235.527,233.505 237.5,234C 236.833,235 236.167,236 235.5,237C 233.951,236.478 232.451,236.645 231,237.5C 230.5,237.333 230,237.167 229.5,237C 230.823,236.184 231.489,235.017 231.5,233.5 Z"/></g>
<g><path style="opacity:1" fill="#e81915" d="M 112.5,233.5 C 112.833,233.5 113.167,233.5 113.5,233.5C 114.778,233.782 115.778,234.449 116.5,235.5C 116.5,235.833 116.5,236.167 116.5,236.5C 116.158,237.338 115.492,237.672 114.5,237.5C 114.167,237.5 113.833,237.5 113.5,237.5C 112.833,237.5 112.5,237.167 112.5,236.5C 112.5,235.5 112.5,234.5 112.5,233.5 Z"/></g>
<g><path style="opacity:1" fill="#fdf8f7" d="M 197.5,233.5 C 197.768,235.099 197.434,236.432 196.5,237.5C 195.432,236.566 194.099,236.232 192.5,236.5C 192.238,235.022 192.571,233.689 193.5,232.5C 194.736,233.246 196.07,233.579 197.5,233.5 Z"/></g>
<g><path style="opacity:1" fill="#40434e" d="M 178.5,232.5 C 178.768,234.099 178.434,235.432 177.5,236.5C 172.959,236.669 172.626,236.002 176.5,234.5C 175.975,233.808 175.308,233.308 174.5,233C 175.793,232.51 177.127,232.343 178.5,232.5 Z"/></g>
<g><path style="opacity:1" fill="#e4635c" d="M 105.5,233.5 C 105.737,234.791 105.404,235.791 104.5,236.5C 103.411,234.883 101.744,234.05 99.5,234C 101.473,233.505 103.473,233.338 105.5,233.5 Z"/></g>
<g><path style="opacity:1" fill="#e4c0bb" d="M 92.5,232.5 C 93.5,232.5 94.5,232.5 95.5,232.5C 96.1667,232.5 96.8333,232.5 97.5,232.5C 100.972,232.16 103.639,232.493 105.5,233.5C 103.473,233.338 101.473,233.505 99.5,234C 101.744,234.05 103.411,234.883 104.5,236.5C 101.995,235.583 99.6618,235.583 97.5,236.5C 95.396,236.799 93.396,236.466 91.5,235.5C 92.7287,234.719 94.062,234.219 95.5,234C 94.2625,233.768 93.2625,233.268 92.5,232.5 Z"/></g>
<g><path style="opacity:1" fill="#dddfe0" d="M 233.5,230.5 C 235.199,230.34 236.866,230.506 238.5,231C 236.415,233.139 234.749,232.972 233.5,230.5 Z"/></g>
<g><path style="opacity:1" fill="#d3d3d3" d="M 226.5,230.5 C 226.918,231.222 227.584,231.722 228.5,232C 226.527,232.495 224.527,232.662 222.5,232.5C 222.5,232.167 222.5,231.833 222.5,231.5C 223.708,230.766 225.041,230.433 226.5,230.5 Z"/></g>
<g><path style="opacity:1" fill="#fcb5af" d="M 192.5,223.5 C 194.167,223.5 195.833,223.5 197.5,223.5C 196.753,226.914 196.753,230.247 197.5,233.5C 196.07,233.579 194.736,233.246 193.5,232.5C 192.571,233.689 192.238,235.022 192.5,236.5C 194.099,236.232 195.432,236.566 196.5,237.5C 193.5,237.5 190.5,237.5 187.5,237.5C 187.737,238.791 187.404,239.791 186.5,240.5C 186.179,238.952 185.179,238.285 183.5,238.5C 183.48,236.857 184.147,235.524 185.5,234.5C 187.423,233.692 189.423,233.192 191.5,233C 190.062,232.781 188.729,232.281 187.5,231.5C 188.807,228.531 190.473,225.865 192.5,223.5 Z"/></g>
<g><path style="opacity:1" fill="#ded6d6" d="M 178.5,221.5 C 178.821,223.048 179.821,223.715 181.5,223.5C 181.44,226.341 180.774,229.007 179.5,231.5C 178.833,231.5 178.5,231.833 178.5,232.5C 177.127,232.343 175.793,232.51 174.5,233C 175.308,233.308 175.975,233.808 176.5,234.5C 172.626,236.002 172.959,236.669 177.5,236.5C 177.082,237.222 176.416,237.722 175.5,238C 176.756,238.417 177.423,239.25 177.5,240.5C 175.265,240.795 173.265,240.461 171.5,239.5C 171.5,238.833 171.5,238.167 171.5,237.5C 171.611,236.883 171.944,236.383 172.5,236C 170.1,235.814 167.766,235.314 165.5,234.5C 167.991,233.459 167.991,232.626 165.5,232C 169.5,231.667 173.5,231.333 177.5,231C 173.815,230.086 174.148,229.419 178.5,229C 174.5,228 174.5,227 178.5,226C 174.833,225.667 171.167,225.333 167.5,225C 168.949,223.883 170.616,223.216 172.5,223C 171.5,222.667 170.5,222.333 169.5,222C 172.482,221.502 175.482,221.335 178.5,221.5 Z"/></g>
<g><path style="opacity:1" fill="#e3d3cf" d="M 284.5,230.5 C 288.167,230.5 291.833,230.5 295.5,230.5C 293.369,231.314 291.036,231.814 288.5,232C 290.833,232.333 293.167,232.667 295.5,233C 292.381,234.405 289.048,234.905 285.5,234.5C 279.207,233.889 279.54,233.056 286.5,232C 284.833,231.667 283.167,231.333 281.5,231C 282.448,230.517 283.448,230.351 284.5,230.5 Z"/></g>
<g><path style="opacity:1" fill="#e9b3af" d="M 268.5,225.5 C 269.167,225.5 269.833,225.5 270.5,225.5C 270.928,228.246 272.594,229.913 275.5,230.5C 276.386,231.325 276.719,232.325 276.5,233.5C 275.551,234.152 274.385,234.486 273,234.5C 271.319,234.392 270.152,233.725 269.5,232.5C 268.458,231.209 267.292,231.209 266,232.5C 265.833,232.167 265.667,231.833 265.5,231.5C 266.376,230.749 267.376,230.249 268.5,230C 267.167,229.667 265.833,229.333 264.5,229C 265.337,227.989 265.67,226.822 265.5,225.5C 266.5,225.5 267.5,225.5 268.5,225.5 Z"/></g>
<g><path style="opacity:1" fill="#dddddd" d="M 243.5,230.5 C 247.833,230.5 252.167,230.5 256.5,230.5C 255.319,232.067 253.653,232.901 251.5,233C 252.448,233.483 253.448,233.649 254.5,233.5C 254.5,234.5 254.5,235.5 254.5,236.5C 254.5,237.5 254.5,238.5 254.5,239.5C 252.833,239.5 251.167,239.5 249.5,239.5C 249.67,238.178 249.337,237.011 248.5,236C 249.5,235.667 250.5,235.333 251.5,235C 249.866,234.506 248.199,234.34 246.5,234.5C 246.034,236.201 246.034,237.701 246.5,239C 244.527,239.495 242.527,239.662 240.5,239.5C 241.234,238.292 241.567,236.959 241.5,235.5C 245.893,235.543 246.226,235.043 242.5,234C 244.5,233.667 246.5,233.333 248.5,233C 246.292,232.809 244.292,232.309 242.5,231.5C 243.167,231.5 243.5,231.167 243.5,230.5 Z"/></g>
<g><path style="opacity:1" fill="#d4d4d3" d="M 258.5,225.5 C 258.423,226.75 257.756,227.583 256.5,228C 257.167,228.333 257.833,228.667 258.5,229C 258.272,229.399 257.938,229.565 257.5,229.5C 255.801,229.66 254.134,229.494 252.5,229C 254.891,228.309 254.891,227.309 252.5,226C 254.473,225.505 256.473,225.338 258.5,225.5 Z"/></g>
<g><path style="opacity:1" fill="#2c2c2d" d="M 204.5,221.5 C 204.5,221.167 204.5,220.833 204.5,220.5C 218.833,220.5 233.167,220.5 247.5,220.5C 247.082,221.222 246.416,221.722 245.5,222C 246.5,222.333 247.5,222.667 248.5,223C 246.494,223.083 245.494,223.583 245.5,224.5C 245.5,224.833 245.5,225.167 245.5,225.5C 244.141,227.009 244.641,227.676 247,227.5C 248.376,227.316 249.209,226.649 249.5,225.5C 250.586,225.62 251.253,226.287 251.5,227.5C 251.167,228.167 250.833,228.833 250.5,229.5C 247.655,227.809 245.321,228.143 243.5,230.5C 243.5,231.167 243.167,231.5 242.5,231.5C 241.603,230.402 240.77,230.402 240,231.5C 239.51,230.207 239.343,228.873 239.5,227.5C 238.817,225.824 237.483,225.157 235.5,225.5C 236.263,224.732 237.263,224.232 238.5,224C 231.497,223.503 231.163,222.837 237.5,222C 231.846,220.842 227.513,222.675 224.5,227.5C 223.069,228.082 221.736,228.915 220.5,230C 221.044,230.717 221.711,231.217 222.5,231.5C 222.5,231.833 222.5,232.167 222.5,232.5C 222.5,232.833 222.5,233.167 222.5,233.5C 221.566,234.568 221.232,235.901 221.5,237.5C 220.167,237.5 218.833,237.5 217.5,237.5C 215.5,237.5 213.5,237.5 211.5,237.5C 211.082,236.778 210.416,236.278 209.5,236C 210.308,235.692 210.975,235.192 211.5,234.5C 209.955,233.548 208.288,233.215 206.5,233.5C 206.5,234.833 206.5,236.167 206.5,237.5C 205.833,237.5 205.167,237.5 204.5,237.5C 203.209,233.601 203.209,229.601 204.5,225.5C 207.432,224.77 210.432,224.937 213.5,226C 211.744,226.202 210.078,226.702 208.5,227.5C 209.347,229.061 209.014,230.561 207.5,232C 209.259,232.798 210.926,232.631 212.5,231.5C 209.924,230.117 210.258,229.283 213.5,229C 212.5,228.667 211.5,228.333 210.5,228C 213.577,226.086 216.911,224.919 220.5,224.5C 220.5,223.5 220.5,222.5 220.5,221.5C 215.167,221.5 209.833,221.5 204.5,221.5 Z"/></g>
<g><path style="opacity:1" fill="#efeae9" d="M 211.5,237.5 C 209.833,237.5 208.167,237.5 206.5,237.5C 206.5,236.167 206.5,234.833 206.5,233.5C 208.288,233.215 209.955,233.548 211.5,234.5C 210.975,235.192 210.308,235.692 209.5,236C 210.416,236.278 211.082,236.778 211.5,237.5 Z"/></g>
<g><path style="opacity:1" fill="#c6c6c4" d="M 226.5,230.5 C 225.737,229.732 224.737,229.232 223.5,229C 225.167,228.333 226.833,228.333 228.5,229C 227.956,229.717 227.289,230.217 226.5,230.5 Z"/></g>
<g><path style="opacity:1" fill="#e2ccc8" d="M 116.5,222.5 C 122.208,222.492 122.541,222.992 117.5,224C 119.5,224.333 121.5,224.667 123.5,225C 122.833,225.333 122.167,225.667 121.5,226C 125.378,227.065 125.378,227.899 121.5,228.5C 118.933,227.162 116.266,226.662 113.5,227C 116.742,227.283 117.076,228.117 114.5,229.5C 113.754,230.736 113.421,232.07 113.5,233.5C 113.167,233.5 112.833,233.5 112.5,233.5C 110.364,233.462 109.031,232.795 108.5,231.5C 110.116,229.262 111.449,226.929 112.5,224.5C 113.833,223.833 115.167,223.167 116.5,222.5 Z"/></g>
<g><path style="opacity:1" fill="#eb1914" d="M 277.5,224.5 C 277.833,224.5 278.167,224.5 278.5,224.5C 280.167,226.833 282.167,228.833 284.5,230.5C 283.448,230.351 282.448,230.517 281.5,231C 283.167,231.333 284.833,231.667 286.5,232C 279.54,233.056 279.207,233.889 285.5,234.5C 285.5,236.167 285.5,237.833 285.5,239.5C 281.958,239.813 278.625,239.479 275.5,238.5C 275.5,238.167 275.5,237.833 275.5,237.5C 276.278,236.844 276.944,236.011 277.5,235C 277.43,234.235 277.097,233.735 276.5,233.5C 276.719,232.325 276.386,231.325 275.5,230.5C 272.594,229.913 270.928,228.246 270.5,225.5C 272.929,225.884 275.263,226.551 277.5,227.5C 277.5,226.5 277.5,225.5 277.5,224.5 Z"/></g>
<g><path style="opacity:1" fill="#53525a" d="M 245.5,225.5 C 245.5,225.167 245.5,224.833 245.5,224.5C 249.833,224.5 254.167,224.5 258.5,224.5C 258.5,224.833 258.5,225.167 258.5,225.5C 256.473,225.338 254.473,225.505 252.5,226C 254.891,227.309 254.891,228.309 252.5,229C 254.134,229.494 255.801,229.66 257.5,229.5C 257.5,230.167 257.167,230.5 256.5,230.5C 252.167,230.5 247.833,230.5 243.5,230.5C 245.321,228.143 247.655,227.809 250.5,229.5C 250.833,228.833 251.167,228.167 251.5,227.5C 251.253,226.287 250.586,225.62 249.5,225.5C 248.167,225.5 246.833,225.5 245.5,225.5 Z"/></g>
<g><path style="opacity:1" fill="#e6e2db" d="M 245.5,225.5 C 246.833,225.5 248.167,225.5 249.5,225.5C 249.209,226.649 248.376,227.316 247,227.5C 244.641,227.676 244.141,227.009 245.5,225.5 Z"/></g>
<g><path style="opacity:1" fill="#dcdedf" d="M 235.5,225.5 C 237.483,225.157 238.817,225.824 239.5,227.5C 237.473,227.662 235.473,227.495 233.5,227C 234.416,226.722 235.082,226.222 235.5,225.5 Z"/></g>
<g><path style="opacity:1" fill="#2e2c2d" d="M 174.5,220.5 C 176.099,220.232 177.432,220.566 178.5,221.5C 175.482,221.335 172.482,221.502 169.5,222C 170.5,222.333 171.5,222.667 172.5,223C 170.616,223.216 168.949,223.883 167.5,225C 171.167,225.333 174.833,225.667 178.5,226C 174.5,227 174.5,228 178.5,229C 174.148,229.419 173.815,230.086 177.5,231C 173.5,231.333 169.5,231.667 165.5,232C 167.991,232.626 167.991,233.459 165.5,234.5C 167.766,235.314 170.1,235.814 172.5,236C 171.944,236.383 171.611,236.883 171.5,237.5C 170.833,237.5 170.167,237.5 169.5,237.5C 167.833,236.167 166.167,236.167 164.5,237.5C 162.833,237.5 161.167,237.5 159.5,237.5C 158.952,235.374 158.285,233.374 157.5,231.5C 157.167,231.5 156.833,231.5 156.5,231.5C 155.194,230.533 154.527,229.199 154.5,227.5C 153.391,226.71 152.058,226.21 150.5,226C 154.5,225.667 158.5,225.333 162.5,225C 160.122,224.026 160.456,223.359 163.5,223C 160.089,222.209 156.589,221.709 153,221.5C 148.369,222.747 148.536,223.58 153.5,224C 151.833,224.333 150.167,224.667 148.5,225C 149.684,226.145 149.684,227.312 148.5,228.5C 146.61,228.703 145.11,228.037 144,226.5C 143.601,226.728 143.435,227.062 143.5,227.5C 139.292,226.715 138.958,225.882 142.5,225C 141.774,223.603 140.607,222.769 139,222.5C 136.811,223.688 134.644,223.688 132.5,222.5C 131.261,222.942 130.261,223.609 129.5,224.5C 128.897,226.19 127.897,227.69 126.5,229C 127.252,229.671 127.586,230.504 127.5,231.5C 127.5,232.167 127.5,232.833 127.5,233.5C 127.5,234.5 127.5,235.5 127.5,236.5C 126.833,236.5 126.5,236.833 126.5,237.5C 124.517,237.843 123.183,237.176 122.5,235.5C 122.082,234.778 121.416,234.278 120.5,234C 125.114,230.05 124.447,228.716 118.5,230C 118.833,230.333 119.167,230.667 119.5,231C 118.117,232.271 117.117,233.771 116.5,235.5C 115.778,234.449 114.778,233.782 113.5,233.5C 113.421,232.07 113.754,230.736 114.5,229.5C 117.076,228.117 116.742,227.283 113.5,227C 116.266,226.662 118.933,227.162 121.5,228.5C 125.378,227.899 125.378,227.065 121.5,226C 122.167,225.667 122.833,225.333 123.5,225C 121.5,224.667 119.5,224.333 117.5,224C 122.541,222.992 122.208,222.492 116.5,222.5C 116.5,222.167 116.5,221.833 116.5,221.5C 135.757,220.513 155.091,220.18 174.5,220.5 Z"/></g>
<g><path style="opacity:1" fill="#d8d8d6" d="M 156.5,231.5 C 156.833,231.5 157.167,231.5 157.5,231.5C 157.423,232.75 156.756,233.583 155.5,234C 156.167,234.333 156.833,234.667 157.5,235C 153.833,235.667 150.167,235.667 146.5,235C 155.764,234.485 155.764,233.652 146.5,232.5C 149.768,231.513 153.102,231.18 156.5,231.5 Z"/></g>
<g><path style="opacity:1" fill="#c8c9cc" d="M 122.5,235.5 C 120.5,235.5 118.5,235.5 116.5,235.5C 117.117,233.771 118.117,232.271 119.5,231C 119.167,230.667 118.833,230.333 118.5,230C 124.447,228.716 125.114,230.05 120.5,234C 121.416,234.278 122.082,234.778 122.5,235.5 Z"/></g>
<g><path style="opacity:1" fill="#e3e2e0" d="M 127.5,233.5 C 127.5,232.833 127.5,232.167 127.5,231.5C 131.893,231.543 132.226,231.043 128.5,230C 130.167,229.333 131.833,229.333 133.5,230C 133.167,230.333 132.833,230.667 132.5,231C 135.5,231.333 138.5,231.667 141.5,232C 137.028,233.437 132.361,233.937 127.5,233.5 Z"/></g>
<g><path style="opacity:1" fill="#dadadb" d="M 167.5,226.5 C 169.199,226.34 170.866,226.506 172.5,227C 171.167,228 171.167,229 172.5,230C 170.5,230.667 168.5,230.667 166.5,230C 167.833,229.667 169.167,229.333 170.5,229C 168.881,228.764 167.881,227.931 167.5,226.5 Z"/></g>
<g><path style="opacity:1" fill="#ec120f" d="M 110.5,222.5 C 112.993,222.131 113.66,222.797 112.5,224.5C 111.449,226.929 110.116,229.262 108.5,231.5C 108.5,232.833 108.5,234.167 108.5,235.5C 107.89,236.391 107.557,237.391 107.5,238.5C 104.272,239.414 100.939,239.747 97.5,239.5C 97.5,238.5 97.5,237.5 97.5,236.5C 99.6618,235.583 101.995,235.583 104.5,236.5C 105.404,235.791 105.737,234.791 105.5,233.5C 103.639,232.493 100.972,232.16 97.5,232.5C 97.5,231.5 97.5,230.5 97.5,229.5C 101.601,226.731 105.935,224.398 110.5,222.5 Z"/></g>
<g><path style="opacity:1" fill="#ea5851" d="M 268.5,225.5 C 268.5,225.167 268.5,224.833 268.5,224.5C 271.5,224.5 274.5,224.5 277.5,224.5C 277.5,225.5 277.5,226.5 277.5,227.5C 275.263,226.551 272.929,225.884 270.5,225.5C 269.833,225.5 269.167,225.5 268.5,225.5 Z"/></g>
<g><path style="opacity:1" fill="#d0d5d5" d="M 154.5,227.5 C 152.621,228.341 150.621,228.675 148.5,228.5C 149.684,227.312 149.684,226.145 148.5,225C 150.167,224.667 151.833,224.333 153.5,224C 148.536,223.58 148.369,222.747 153,221.5C 156.589,221.709 160.089,222.209 163.5,223C 160.456,223.359 160.122,224.026 162.5,225C 158.5,225.333 154.5,225.667 150.5,226C 152.058,226.21 153.391,226.71 154.5,227.5 Z"/></g>
<g><path style="opacity:1" fill="#bfc1c4" d="M 143.5,227.5 C 142.903,228.139 142.07,228.472 141,228.5C 138.521,226.337 135.688,225.504 132.5,226C 133.5,226.333 134.5,226.667 135.5,227C 133.647,228.669 131.647,228.835 129.5,227.5C 130.791,226.473 130.791,225.473 129.5,224.5C 130.261,223.609 131.261,222.942 132.5,222.5C 134.644,223.688 136.811,223.688 139,222.5C 140.607,222.769 141.774,223.603 142.5,225C 138.958,225.882 139.292,226.715 143.5,227.5 Z"/></g>
<g><path style="opacity:1" fill="#242526" d="M 326.5,183.5 C 327.5,184.167 328.5,184.833 329.5,185.5C 329.5,204.833 329.5,224.167 329.5,243.5C 328.609,242.89 327.609,242.557 326.5,242.5C 326.5,222.833 326.5,203.167 326.5,183.5 Z"/></g>
<g><path style="opacity:1" fill="#f2e5e5" d="M 273.5,220.5 C 274.5,220.5 275.5,220.5 276.5,220.5C 277.429,221.315 278.429,222.148 279.5,223C 278.944,223.383 278.611,223.883 278.5,224.5C 278.167,224.5 277.833,224.5 277.5,224.5C 274.5,224.5 271.5,224.5 268.5,224.5C 266.302,224.591 265.969,223.925 267.5,222.5C 267.833,222.5 268.167,222.5 268.5,222.5C 268.435,222.938 268.601,223.272 269,223.5C 269.918,221.624 271.418,220.624 273.5,220.5 Z"/></g>
<g><path style="opacity:1" fill="#e0e0e0" d="M 247.5,220.5 C 249.833,220.5 252.167,220.5 254.5,220.5C 255.833,221.833 257.167,223.167 258.5,224.5C 254.167,224.5 249.833,224.5 245.5,224.5C 245.494,223.583 246.494,223.083 248.5,223C 247.5,222.667 246.5,222.333 245.5,222C 246.416,221.722 247.082,221.222 247.5,220.5 Z"/></g>
<g><path style="opacity:1" fill="#dbe0df" d="M 235.5,225.5 C 232.859,224.737 230.192,224.57 227.5,225C 228.833,225.333 230.167,225.667 231.5,226C 229.406,227.352 227.073,227.852 224.5,227.5C 227.513,222.675 231.846,220.842 237.5,222C 231.163,222.837 231.497,223.503 238.5,224C 237.263,224.232 236.263,224.732 235.5,225.5 Z"/></g>
<g><path style="opacity:1" fill="#bec5c7" d="M 204.5,221.5 C 209.833,221.5 215.167,221.5 220.5,221.5C 220.5,222.5 220.5,223.5 220.5,224.5C 216.911,224.919 213.577,226.086 210.5,228C 211.5,228.333 212.5,228.667 213.5,229C 210.258,229.283 209.924,230.117 212.5,231.5C 210.926,232.631 209.259,232.798 207.5,232C 209.014,230.561 209.347,229.061 208.5,227.5C 210.078,226.702 211.744,226.202 213.5,226C 210.432,224.937 207.432,224.77 204.5,225.5C 204.5,224.167 204.5,222.833 204.5,221.5 Z"/></g>
<g><path style="opacity:1" fill="#29282b" d="M 254.5,220.5 C 259.14,219.975 263.473,220.642 267.5,222.5C 265.969,223.925 266.302,224.591 268.5,224.5C 268.5,224.833 268.5,225.167 268.5,225.5C 267.5,225.5 266.5,225.5 265.5,225.5C 265.67,226.822 265.337,227.989 264.5,229C 265.833,229.333 267.167,229.667 268.5,230C 267.376,230.249 266.376,230.749 265.5,231.5C 265.667,231.833 265.833,232.167 266,232.5C 267.292,231.209 268.458,231.209 269.5,232.5C 268.272,233.306 267.272,234.306 266.5,235.5C 262.519,236.021 258.519,236.354 254.5,236.5C 254.5,235.5 254.5,234.5 254.5,233.5C 253.448,233.649 252.448,233.483 251.5,233C 253.653,232.901 255.319,232.067 256.5,230.5C 257.167,230.5 257.5,230.167 257.5,229.5C 257.938,229.565 258.272,229.399 258.5,229C 257.833,228.667 257.167,228.333 256.5,228C 257.756,227.583 258.423,226.75 258.5,225.5C 258.5,225.167 258.5,224.833 258.5,224.5C 257.167,223.167 255.833,221.833 254.5,220.5 Z"/></g>
<g><path style="opacity:1" fill="#f17065" d="M 197.5,223.5 C 195.833,223.5 194.167,223.5 192.5,223.5C 194.296,220.952 195.962,220.952 197.5,223.5 Z"/></g>
<g><path style="opacity:1" fill="#aa2a25" d="M 112.5,218.5 C 113.708,219.234 115.041,219.567 116.5,219.5C 115.494,220.396 115.494,221.062 116.5,221.5C 116.5,221.833 116.5,222.167 116.5,222.5C 115.167,223.167 113.833,223.833 112.5,224.5C 113.66,222.797 112.993,222.131 110.5,222.5C 110.918,221.778 111.584,221.278 112.5,221C 110.432,220.313 108.432,220.48 106.5,221.5C 105.614,220.675 105.281,219.675 105.5,218.5C 107.833,218.5 110.167,218.5 112.5,218.5 Z"/></g>
<g><path style="opacity:1" fill="#823a3f" d="M 263.5,218.5 C 266.542,219.541 269.542,219.541 272.5,218.5C 272.833,219.167 273.167,219.833 273.5,220.5C 271.418,220.624 269.918,221.624 269,223.5C 268.601,223.272 268.435,222.938 268.5,222.5C 267.409,220.466 265.743,219.132 263.5,218.5 Z"/></g>
<g><path style="opacity:1" fill="#d60703" d="M 204.5,218.5 C 220.833,218.5 237.167,218.5 253.5,218.5C 256.833,218.5 260.167,218.5 263.5,218.5C 265.743,219.132 267.409,220.466 268.5,222.5C 268.167,222.5 267.833,222.5 267.5,222.5C 263.473,220.642 259.14,219.975 254.5,220.5C 252.167,220.5 249.833,220.5 247.5,220.5C 233.167,220.5 218.833,220.5 204.5,220.5C 204.5,219.833 204.5,219.167 204.5,218.5 Z"/></g>
<g><path style="opacity:1" fill="#d20a04" d="M 119.5,218.5 C 138.833,218.5 158.167,218.5 177.5,218.5C 176.5,219.167 175.5,219.833 174.5,220.5C 155.091,220.18 135.757,220.513 116.5,221.5C 115.494,221.062 115.494,220.396 116.5,219.5C 117.391,218.89 118.391,218.557 119.5,218.5 Z"/></g>
<g><path style="opacity:1" fill="#242327" d="M 290.5,183.5 C 290.5,198.833 290.5,214.167 290.5,229.5C 292.415,229.216 294.081,229.549 295.5,230.5C 291.833,230.5 288.167,230.5 284.5,230.5C 282.167,228.833 280.167,226.833 278.5,224.5C 278.611,223.883 278.944,223.383 279.5,223C 278.429,222.148 277.429,221.315 276.5,220.5C 277.338,220.158 277.672,219.492 277.5,218.5C 277.5,217.833 277.5,217.167 277.5,216.5C 277.5,216.167 277.5,215.833 277.5,215.5C 279.246,213.748 281.246,212.415 283.5,211.5C 284.167,211.5 284.833,211.5 285.5,211.5C 285.171,217.537 285.504,223.537 286.5,229.5C 287.499,214.848 287.833,200.182 287.5,185.5C 287.5,185.167 287.5,184.833 287.5,184.5C 288.391,183.89 289.391,183.557 290.5,183.5 Z"/></g>
<g><path style="opacity:1" fill="#ce1515" d="M 272.5,218.5 C 274.167,218.5 275.833,218.5 277.5,218.5C 277.672,219.492 277.338,220.158 276.5,220.5C 275.5,220.5 274.5,220.5 273.5,220.5C 273.167,219.833 272.833,219.167 272.5,218.5 Z"/></g>
<g><path style="opacity:1" fill="#643f3d" d="M 205.5,216.5 C 221.5,217.167 237.5,217.833 253.5,218.5C 237.167,218.5 220.833,218.5 204.5,218.5C 204.328,217.508 204.662,216.842 205.5,216.5 Z"/></g>
<g><path style="opacity:1" fill="#444f54" d="M 205.5,216.5 C 221.833,216.5 238.167,216.5 254.5,216.5C 262.167,216.5 269.833,216.5 277.5,216.5C 277.5,217.167 277.5,217.833 277.5,218.5C 275.833,218.5 274.167,218.5 272.5,218.5C 269.542,219.541 266.542,219.541 263.5,218.5C 260.167,218.5 256.833,218.5 253.5,218.5C 237.5,217.833 221.5,217.167 205.5,216.5 Z"/></g>
<g><path style="opacity:1" fill="#2f2c2e" d="M 97.5,210.5 C 97.8333,210.5 98.1667,210.5 98.5,210.5C 100.859,211.337 102.859,212.837 104.5,215C 110.157,215.499 115.824,215.666 121.5,215.5C 116.349,216.327 111.016,216.827 105.5,217C 108.036,217.186 110.369,217.686 112.5,218.5C 110.167,218.5 107.833,218.5 105.5,218.5C 105.281,219.675 105.614,220.675 106.5,221.5C 108.432,220.48 110.432,220.313 112.5,221C 111.584,221.278 110.918,221.778 110.5,222.5C 105.935,224.398 101.601,226.731 97.5,229.5C 97.5,223.167 97.5,216.833 97.5,210.5 Z"/></g>
<g><path style="opacity:1" fill="#782f34" d="M 253.5,214.5 C 254.338,214.842 254.672,215.508 254.5,216.5C 238.167,216.5 221.833,216.5 205.5,216.5C 205.5,216.167 205.5,215.833 205.5,215.5C 221.675,215.83 237.675,215.496 253.5,214.5 Z"/></g>
<g><path style="opacity:1" fill="#713537" d="M 129.5,214.5 C 145.658,215.496 161.991,215.83 178.5,215.5C 178.737,216.791 178.404,217.791 177.5,218.5C 158.167,218.5 138.833,218.5 119.5,218.5C 138.662,217.668 157.996,217.168 177.5,217C 161.156,216.833 144.823,216.333 128.5,215.5C 128.624,214.893 128.957,214.56 129.5,214.5 Z"/></g>
<g><path style="opacity:1" fill="#1e2226" d="M 92.5,183.5 C 93.609,183.557 94.609,183.89 95.5,184.5C 95.8333,185.167 96.1667,185.833 96.5,186.5C 95.5038,201.658 95.1705,216.991 95.5,232.5C 94.5,232.5 93.5,232.5 92.5,232.5C 92.5,216.167 92.5,199.833 92.5,183.5 Z"/></g>
<g><path style="opacity:1" fill="#df0905" d="M 249.5,209.5 C 261.171,209.333 272.838,209.5 284.5,210C 283.944,210.383 283.611,210.883 283.5,211.5C 281.246,212.415 279.246,213.748 277.5,215.5C 271.491,215.666 265.491,215.499 259.5,215C 255.912,213.378 252.579,211.545 249.5,209.5 Z"/></g>
<g><path style="opacity:1" fill="#db0906" d="M 205.5,209.5 C 217.167,209.5 228.833,209.5 240.5,209.5C 240.833,209.5 241.167,209.5 241.5,209.5C 245.266,211.539 249.266,213.205 253.5,214.5C 237.675,215.496 221.675,215.83 205.5,215.5C 206.609,214.71 207.942,214.21 209.5,214C 209.167,213.667 208.833,213.333 208.5,213C 216.115,211.854 223.782,211.188 231.5,211C 222.657,210.83 213.99,210.33 205.5,209.5 Z"/></g>
<g><path style="opacity:1" fill="#df0905" d="M 121.5,215.5 C 115.824,215.666 110.157,215.499 104.5,215C 102.859,212.837 100.859,211.337 98.5,210.5C 109.993,209.341 121.659,209.174 133.5,210C 129.331,211.586 125.331,213.42 121.5,215.5 Z"/></g>
<g><path style="opacity:1" fill="#5a4449" d="M 241.5,209.5 C 244.272,210.371 246.938,210.371 249.5,209.5C 252.579,211.545 255.912,213.378 259.5,215C 265.491,215.499 271.491,215.666 277.5,215.5C 277.5,215.833 277.5,216.167 277.5,216.5C 269.833,216.5 262.167,216.5 254.5,216.5C 254.672,215.508 254.338,214.842 253.5,214.5C 249.266,213.205 245.266,211.539 241.5,209.5 Z"/></g>
<g><path style="opacity:1" fill="#5e413e" d="M 249.5,209.5 C 261.322,208.505 273.322,208.172 285.5,208.5C 285.5,209.5 285.5,210.5 285.5,211.5C 284.833,211.5 284.167,211.5 283.5,211.5C 283.611,210.883 283.944,210.383 284.5,210C 272.838,209.5 261.171,209.333 249.5,209.5 Z"/></g>
<g><path style="opacity:1" fill="#614042" d="M 232.5,203.5 C 234.153,203.66 235.486,204.326 236.5,205.5C 226.643,207.175 216.643,208.009 206.5,208C 218.007,208.169 229.341,208.669 240.5,209.5C 228.833,209.5 217.167,209.5 205.5,209.5C 205.5,208.5 205.5,207.5 205.5,206.5C 210.833,206.5 216.167,206.5 221.5,206.5C 225.182,206.665 228.848,206.499 232.5,206C 231.263,205.768 230.263,205.268 229.5,204.5C 230.791,204.737 231.791,204.404 232.5,203.5 Z"/></g>
<g><path style="opacity:1" fill="#653f41" d="M 150.5,205.5 C 155.305,206.487 160.305,206.821 165.5,206.5C 169.5,206.5 173.5,206.5 177.5,206.5C 177.5,207.5 177.5,208.5 177.5,209.5C 166.167,209.5 154.833,209.5 143.5,209.5C 154.326,208.67 165.326,208.17 176.5,208C 167.482,207.832 158.482,207.332 149.5,206.5C 149.624,205.893 149.957,205.56 150.5,205.5 Z"/></g>
<g><path style="opacity:1" fill="#4b5154" d="M 236.5,205.5 C 241.07,206.441 245.737,206.774 250.5,206.5C 262.167,206.5 273.833,206.5 285.5,206.5C 285.5,207.167 285.5,207.833 285.5,208.5C 273.322,208.172 261.322,208.505 249.5,209.5C 246.938,210.371 244.272,210.371 241.5,209.5C 241.167,209.5 240.833,209.5 240.5,209.5C 229.341,208.669 218.007,208.169 206.5,208C 216.643,208.009 226.643,207.175 236.5,205.5 Z"/></g>
<g><path style="opacity:1" fill="#4a5053" d="M 168.5,198.5 C 162.738,201.378 156.738,203.712 150.5,205.5C 149.957,205.56 149.624,205.893 149.5,206.5C 158.482,207.332 167.482,207.832 176.5,208C 165.326,208.17 154.326,208.67 143.5,209.5C 138.85,211.133 134.184,212.8 129.5,214.5C 128.957,214.56 128.624,214.893 128.5,215.5C 144.823,216.333 161.156,216.833 177.5,217C 157.996,217.168 138.662,217.668 119.5,218.5C 118.391,218.557 117.391,218.89 116.5,219.5C 115.041,219.567 113.708,219.234 112.5,218.5C 110.369,217.686 108.036,217.186 105.5,217C 111.016,216.827 116.349,216.327 121.5,215.5C 125.331,213.42 129.331,211.586 133.5,210C 121.659,209.174 109.993,209.341 98.5,210.5C 98.1667,210.5 97.8333,210.5 97.5,210.5C 97.5,209.5 97.5,208.5 97.5,207.5C 113.17,207.667 128.837,207.5 144.5,207C 145.056,206.617 145.389,206.117 145.5,205.5C 151.564,202.798 157.564,200.131 163.5,197.5C 167.438,195.965 171.438,194.632 175.5,193.5C 175.5,194.5 175.5,195.5 175.5,196.5C 173.035,196.767 170.701,197.434 168.5,198.5 Z"/></g>
<g><path style="opacity:1" fill="#060303" d="M 287.5,185.5 C 287.833,200.182 287.499,214.848 286.5,229.5C 285.504,223.537 285.171,217.537 285.5,211.5C 285.5,210.5 285.5,209.5 285.5,208.5C 285.5,207.833 285.5,207.167 285.5,206.5C 285.334,199.825 285.5,193.158 286,186.5C 286.383,185.944 286.883,185.611 287.5,185.5 Z"/></g>
<g><path style="opacity:1" fill="#6a3a42" d="M 145.5,205.5 C 145.389,206.117 145.056,206.617 144.5,207C 128.837,207.5 113.17,207.667 97.5,207.5C 97.5,207.167 97.5,206.833 97.5,206.5C 109.167,206.5 120.833,206.5 132.5,206.5C 136.898,206.706 141.232,206.373 145.5,205.5 Z"/></g>
<g><path style="opacity:1" fill="#050406" d="M 53.5,185.5 C 53.5,204.833 53.5,224.167 53.5,243.5C 52.8333,243.5 52.1667,243.5 51.5,243.5C 51.3334,224.497 51.5001,205.497 52,186.5C 52.3826,185.944 52.8826,185.611 53.5,185.5 Z"/></g>
<g><path style="opacity:1" fill="#b30403" d="M 214.5,198.5 C 219.336,200.89 224.336,202.89 229.5,204.5C 230.263,205.268 231.263,205.768 232.5,206C 228.848,206.499 225.182,206.665 221.5,206.5C 219.562,204.837 217.228,204.171 214.5,204.5C 214.5,202.5 214.5,200.5 214.5,198.5 Z"/></g>
<g><path style="opacity:1" fill="#4d4d59" d="M 207.5,193.5 C 211.216,194.68 214.883,196.013 218.5,197.5C 222.83,199.991 227.497,201.991 232.5,203.5C 231.791,204.404 230.791,204.737 229.5,204.5C 224.336,202.89 219.336,200.89 214.5,198.5C 210.819,198.427 208.486,196.76 207.5,193.5 Z"/></g>
<g><path style="opacity:1" fill="#080404" d="M 96.5,186.5 C 97.4907,192.979 97.824,199.646 97.5,206.5C 97.5,206.833 97.5,207.167 97.5,207.5C 97.5,208.5 97.5,209.5 97.5,210.5C 97.5,216.833 97.5,223.167 97.5,229.5C 97.5,230.5 97.5,231.5 97.5,232.5C 96.8333,232.5 96.1667,232.5 95.5,232.5C 95.1705,216.991 95.5038,201.658 96.5,186.5 Z"/></g>
<g><path style="opacity:1" fill="#060306" d="M 329.5,185.5 C 330.117,185.611 330.617,185.944 331,186.5C 331.5,205.497 331.667,224.497 331.5,243.5C 330.833,243.5 330.167,243.5 329.5,243.5C 329.5,224.167 329.5,204.833 329.5,185.5 Z"/></g>
<g><path style="opacity:1" fill="#252426" d="M 56.5,183.5 C 56.5,203.167 56.5,222.833 56.5,242.5C 55.391,242.557 54.391,242.89 53.5,243.5C 53.5,224.167 53.5,204.833 53.5,185.5C 53.9731,184.094 54.9731,183.427 56.5,183.5 Z"/></g>
<g><path style="opacity:1" fill="#b00101" d="M 250.5,206.5 C 245.737,206.774 241.07,206.441 236.5,205.5C 235.486,204.326 234.153,203.66 232.5,203.5C 227.497,201.991 222.83,199.991 218.5,197.5C 227.242,195.314 235.909,192.814 244.5,190C 255.461,187.376 266.461,187.043 277.5,189C 281.692,191.239 282.359,194.239 279.5,198C 276.392,200.106 273.059,201.772 269.5,203C 263.017,204.094 256.684,205.261 250.5,206.5 Z"/></g>
<g><path style="opacity:1" fill="#010101" d="M 56.5,183.5 C 68.5,183.5 80.5,183.5 92.5,183.5C 92.5,199.833 92.5,216.167 92.5,232.5C 93.2625,233.268 94.2625,233.768 95.5,234C 94.062,234.219 92.7287,234.719 91.5,235.5C 93.396,236.466 95.396,236.799 97.5,236.5C 97.5,237.5 97.5,238.5 97.5,239.5C 83.8544,240.737 70.1877,241.737 56.5,242.5C 56.5,222.833 56.5,203.167 56.5,183.5 Z"/></g>
<g><path style="opacity:1" fill="#bbb8b9" d="M 76.5,232.5 C 81.1785,232.334 85.8452,232.501 90.5,233C 88.3112,235.958 85.3112,237.125 81.5,236.5C 79.5,236.167 77.5,235.833 75.5,235.5C 76.1272,234.583 76.4606,233.583 76.5,232.5 Z"/></g>
<g><path style="opacity:1" fill="#020202" d="M 290.5,183.5 C 302.5,183.5 314.5,183.5 326.5,183.5C 326.5,203.167 326.5,222.833 326.5,242.5C 312.666,241.726 298.999,240.726 285.5,239.5C 285.5,237.833 285.5,236.167 285.5,234.5C 289.048,234.905 292.381,234.405 295.5,233C 293.167,232.667 290.833,232.333 288.5,232C 291.036,231.814 293.369,231.314 295.5,230.5C 294.081,229.549 292.415,229.216 290.5,229.5C 290.5,214.167 290.5,198.833 290.5,183.5 Z"/></g>
<g><path style="opacity:1" fill="#dbdcd8" d="M 297.5,229.5 C 301.452,230.186 305.286,230.186 309,229.5C 310.059,229.63 310.892,230.13 311.5,231C 307.5,231.333 303.5,231.667 299.5,232C 303.167,232.333 306.833,232.667 310.5,233C 308.2,234.109 305.7,234.609 303,234.5C 300.833,234.167 298.667,233.833 296.5,233.5C 297.025,232.808 297.692,232.308 298.5,232C 297.748,231.329 297.414,230.496 297.5,229.5 Z"/></g>
<g><path style="opacity:1" fill="#dd0806" d="M 214.5,175.5 C 220.233,176.688 225.9,178.188 231.5,180C 236.489,180.499 241.489,180.666 246.5,180.5C 256.488,179.501 266.488,179.001 276.5,179C 280.787,179.81 284.454,181.643 287.5,184.5C 287.5,184.833 287.5,185.167 287.5,185.5C 286.883,185.611 286.383,185.944 286,186.5C 285.5,193.158 285.334,199.825 285.5,206.5C 273.833,206.5 262.167,206.5 250.5,206.5C 256.684,205.261 263.017,204.094 269.5,203C 273.059,201.772 276.392,200.106 279.5,198C 282.359,194.239 281.692,191.239 277.5,189C 266.461,187.043 255.461,187.376 244.5,190C 235.909,192.814 227.242,195.314 218.5,197.5C 214.883,196.013 211.216,194.68 207.5,193.5C 209.185,189.314 211.352,185.314 214,181.5C 214.909,179.342 215.075,177.342 214.5,175.5 Z"/></g>
<g><path style="opacity:1" fill="#df0705" d="M 187.5,169.5 C 187.5,172.167 187.5,174.833 187.5,177.5C 186.532,175.393 186.198,173.059 186.5,170.5C 183.144,170.15 180.144,170.983 177.5,173C 179.301,173.317 179.634,173.984 178.5,175C 177.167,175 175.833,175 174.5,175C 173.941,175.725 173.608,176.558 173.5,177.5C 175.782,182.624 177.449,187.957 178.5,193.5C 178.182,194.647 177.516,195.481 176.5,196C 178.525,197.194 178.859,198.694 177.5,200.5C 178.84,201.688 179.507,203.188 179.5,205C 178.801,208.567 178.468,212.067 178.5,215.5C 161.991,215.83 145.658,215.496 129.5,214.5C 134.184,212.8 138.85,211.133 143.5,209.5C 154.833,209.5 166.167,209.5 177.5,209.5C 177.5,208.5 177.5,207.5 177.5,206.5C 173.5,206.5 169.5,206.5 165.5,206.5C 166.183,204.824 167.517,204.157 169.5,204.5C 169.773,202.549 169.107,201.049 167.5,200C 168.056,199.617 168.389,199.117 168.5,198.5C 170.701,197.434 173.035,196.767 175.5,196.5C 175.5,195.5 175.5,194.5 175.5,193.5C 171.438,194.632 167.438,195.965 163.5,197.5C 153.034,194.104 142.367,191.27 131.5,189C 122.485,187.141 113.485,187.141 104.5,189C 100.633,192.249 100.633,195.582 104.5,199C 112.171,203.663 120.504,205.663 129.5,205C 130.737,205.232 131.737,205.732 132.5,206.5C 120.833,206.5 109.167,206.5 97.5,206.5C 97.824,199.646 97.4907,192.979 96.5,186.5C 96.1667,185.833 95.8333,185.167 95.5,184.5C 98.3435,181.259 102.01,179.426 106.5,179C 116.505,179.092 126.505,179.592 136.5,180.5C 150.14,180.942 162.807,177.775 174.5,171C 178.751,169.805 183.085,169.305 187.5,169.5 Z"/></g>
<g><path style="opacity:1" fill="#b80705" d="M 168.5,198.5 C 168.389,199.117 168.056,199.617 167.5,200C 169.107,201.049 169.773,202.549 169.5,204.5C 167.517,204.157 166.183,204.824 165.5,206.5C 160.305,206.821 155.305,206.487 150.5,205.5C 156.738,203.712 162.738,201.378 168.5,198.5 Z"/></g>
<g><path style="opacity:1" fill="#b00000" d="M 163.5,197.5 C 157.564,200.131 151.564,202.798 145.5,205.5C 141.232,206.373 136.898,206.706 132.5,206.5C 131.737,205.732 130.737,205.232 129.5,205C 120.504,205.663 112.171,203.663 104.5,199C 100.633,195.582 100.633,192.249 104.5,189C 113.485,187.141 122.485,187.141 131.5,189C 142.367,191.27 153.034,194.104 163.5,197.5 Z"/></g>
<g><path style="opacity:1" fill="#37201f" d="M 187.5,152.5 C 188.329,159.321 188.829,166.321 189,173.5C 189.333,173.167 189.667,172.833 190,172.5C 190.632,174.531 191.799,176.198 193.5,177.5C 194.167,169.343 194.833,161.343 195.5,153.5C 195.5,154.5 195.5,155.5 195.5,156.5C 195.5,160.833 195.5,165.167 195.5,169.5C 195.784,172.777 195.451,175.943 194.5,179C 192.5,179.667 190.5,179.667 188.5,179C 187.944,178.617 187.611,178.117 187.5,177.5C 187.5,174.833 187.5,172.167 187.5,169.5C 187.5,165.167 187.5,160.833 187.5,156.5C 187.5,155.167 187.5,153.833 187.5,152.5 Z"/></g>
<g><path style="opacity:1" fill="#ae0102" d="M 246.5,180.5 C 241.489,180.666 236.489,180.499 231.5,180C 225.9,178.188 220.233,176.688 214.5,175.5C 208.999,170.919 202.666,168.919 195.5,169.5C 195.5,165.167 195.5,160.833 195.5,156.5C 203.123,157.147 209.123,160.647 213.5,167C 215.712,167.789 217.712,167.622 219.5,166.5C 222.523,165.322 225.523,165.322 228.5,166.5C 230.194,167.527 231.527,168.861 232.5,170.5C 237.116,171.294 239.449,174.128 239.5,179C 240.944,179.781 242.277,179.614 243.5,178.5C 250.605,164.623 257.439,150.623 264,136.5C 264.497,134.19 264.663,131.857 264.5,129.5C 246.304,131.89 228.304,134.89 210.5,138.5C 208.487,137.525 207.154,135.858 206.5,133.5C 207.243,132.818 207.909,132.151 208.5,131.5C 213.132,130.617 217.798,129.95 222.5,129.5C 227.414,129.638 232.081,128.972 236.5,127.5C 239.054,126.612 241.721,126.279 244.5,126.5C 245.167,126.5 245.833,126.5 246.5,126.5C 250.078,126.451 253.411,125.785 256.5,124.5C 261.152,124.002 265.819,123.669 270.5,123.5C 270.649,126.607 270.149,129.607 269,132.5C 260.663,148.171 253.163,164.171 246.5,180.5 Z"/></g>
<g><path style="opacity:1" fill="#31262e" d="M 178.5,148.5 C 177.282,149.161 175.949,149.828 174.5,150.5C 175.066,151.291 175.899,151.291 177,150.5C 180.654,151.062 184.154,151.729 187.5,152.5C 181.423,152.196 175.423,152.696 169.5,154C 168.024,157.312 167.19,160.812 167,164.5C 166.29,165.973 165.124,166.64 163.5,166.5C 160.531,165.671 157.531,165.505 154.5,166C 153.29,167.039 152.29,168.206 151.5,169.5C 150.325,169.719 149.325,169.386 148.5,168.5C 150.802,164.367 153.302,160.367 156,156.5C 160.393,153.22 165.226,150.887 170.5,149.5C 173.127,148.908 175.794,148.575 178.5,148.5 Z"/></g>
<g><path style="opacity:1" fill="#21282b" d="M 203.5,148.5 C 206.482,148.963 209.482,149.296 212.5,149.5C 223.263,152.596 230.93,159.263 235.5,169.5C 234.675,170.386 233.675,170.719 232.5,170.5C 231.527,168.861 230.194,167.527 228.5,166.5C 226.086,159.992 221.419,155.992 214.5,154.5C 208.129,152.549 201.796,152.215 195.5,153.5C 194.833,161.343 194.167,169.343 193.5,177.5C 191.799,176.198 190.632,174.531 190,172.5C 189.667,172.833 189.333,173.167 189,173.5C 188.829,166.321 188.329,159.321 187.5,152.5C 184.154,151.729 180.654,151.062 177,150.5C 175.899,151.291 175.066,151.291 174.5,150.5C 175.949,149.828 177.282,149.161 178.5,148.5C 178.833,148.5 179.167,148.5 179.5,148.5C 187.5,147.167 195.5,147.167 203.5,148.5 Z"/></g>
<g><path style="opacity:1" fill="#422837" d="M 214.5,154.5 C 221.419,155.992 226.086,159.992 228.5,166.5C 225.523,165.322 222.523,165.322 219.5,166.5C 217.876,166.64 216.71,165.973 216,164.5C 215.545,161.146 215.045,157.813 214.5,154.5 Z"/></g>
<g><path style="opacity:1" fill="#5e0102" d="M 214.5,154.5 C 215.045,157.813 215.545,161.146 216,164.5C 216.71,165.973 217.876,166.64 219.5,166.5C 217.712,167.622 215.712,167.789 213.5,167C 209.123,160.647 203.123,157.147 195.5,156.5C 195.5,155.5 195.5,154.5 195.5,153.5C 201.796,152.215 208.129,152.549 214.5,154.5 Z"/></g>
<g><path style="opacity:1" fill="#5e0102" d="M 187.5,152.5 C 187.5,153.833 187.5,155.167 187.5,156.5C 184.012,156.705 180.679,157.539 177.5,159C 174.833,161.667 172.167,164.333 169.5,167C 167.288,167.789 165.288,167.622 163.5,166.5C 165.124,166.64 166.29,165.973 167,164.5C 167.19,160.812 168.024,157.312 169.5,154C 175.423,152.696 181.423,152.196 187.5,152.5 Z"/></g>
<g><path style="opacity:1" fill="#ab0205" d="M 173.5,131.5 C 174.609,132.29 175.942,132.79 177.5,133C 176.128,134.242 175.128,135.742 174.5,137.5C 173.311,138.429 171.978,138.762 170.5,138.5C 158.941,137.492 147.608,135.325 136.5,132C 130.523,131.169 124.523,130.669 118.5,130.5C 118.338,132.527 118.505,134.527 119,136.5C 125.561,150.623 132.395,164.623 139.5,178.5C 140.723,179.614 142.056,179.781 143.5,179C 143.891,173.785 146.558,170.618 151.5,169.5C 152.29,168.206 153.29,167.039 154.5,166C 157.531,165.505 160.531,165.671 163.5,166.5C 165.288,167.622 167.288,167.789 169.5,167C 172.167,164.333 174.833,161.667 177.5,159C 180.679,157.539 184.012,156.705 187.5,156.5C 187.5,160.833 187.5,165.167 187.5,169.5C 183.085,169.305 178.751,169.805 174.5,171C 162.807,177.775 150.14,180.942 136.5,180.5C 129.837,164.171 122.337,148.171 114,132.5C 112.851,129.607 112.351,126.607 112.5,123.5C 132.764,126.347 153.098,129.013 173.5,131.5 Z"/></g>
<g><path style="opacity:1" fill="#43273a" d="M 232.5,170.5 C 233.675,170.719 234.675,170.386 235.5,169.5C 230.93,159.263 223.263,152.596 212.5,149.5C 211.674,145.864 211.008,142.197 210.5,138.5C 228.304,134.89 246.304,131.89 264.5,129.5C 264.663,131.857 264.497,134.19 264,136.5C 257.439,150.623 250.605,164.623 243.5,178.5C 242.277,179.614 240.944,179.781 239.5,179C 239.449,174.128 237.116,171.294 232.5,170.5 Z"/></g>
<g><path style="opacity:1" fill="#43273a" d="M 170.5,138.5 C 171.278,139.156 171.944,139.989 172.5,141C 171.594,143.791 170.927,146.624 170.5,149.5C 165.226,150.887 160.393,153.22 156,156.5C 153.302,160.367 150.802,164.367 148.5,168.5C 149.325,169.386 150.325,169.719 151.5,169.5C 146.558,170.618 143.891,173.785 143.5,179C 142.056,179.781 140.723,179.614 139.5,178.5C 132.395,164.623 125.561,150.623 119,136.5C 118.505,134.527 118.338,132.527 118.5,130.5C 124.523,130.669 130.523,131.169 136.5,132C 147.608,135.325 158.941,137.492 170.5,138.5 Z"/></g>
<g><path style="opacity:1" fill="#5c0203" d="M 196.5,126.5 C 197.605,127.6 198.938,128.267 200.5,128.5C 200.577,129.75 201.244,130.583 202.5,131C 204.473,131.495 206.473,131.662 208.5,131.5C 207.909,132.151 207.243,132.818 206.5,133.5C 207.154,135.858 208.487,137.525 210.5,138.5C 211.008,142.197 211.674,145.864 212.5,149.5C 209.482,149.296 206.482,148.963 203.5,148.5C 203.144,135.652 196.81,131.152 184.5,135C 181.547,138.949 179.88,143.449 179.5,148.5C 179.167,148.5 178.833,148.5 178.5,148.5C 175.794,148.575 173.127,148.908 170.5,149.5C 170.927,146.624 171.594,143.791 172.5,141C 171.944,139.989 171.278,139.156 170.5,138.5C 171.978,138.762 173.311,138.429 174.5,137.5C 175.128,135.742 176.128,134.242 177.5,133C 175.942,132.79 174.609,132.29 173.5,131.5C 176.066,131.656 178.566,131.322 181,130.5C 182.03,130.164 182.53,129.497 182.5,128.5C 183.609,128.443 184.609,128.11 185.5,127.5C 187.134,128.161 188.967,128.494 191,128.5C 193.295,128.453 195.129,127.787 196.5,126.5 Z"/></g>
<g><path style="opacity:1" fill="#020000" d="M 203.5,148.5 C 195.5,147.167 187.5,147.167 179.5,148.5C 179.88,143.449 181.547,138.949 184.5,135C 196.81,131.152 203.144,135.652 203.5,148.5 Z"/></g>
<g><path style="opacity:1" fill="#7e1318" d="M 236.5,127.5 C 232.081,128.972 227.414,129.638 222.5,129.5C 226.919,128.028 231.586,127.362 236.5,127.5 Z"/></g>
<g><path style="opacity:1" fill="#72151c" d="M 256.5,124.5 C 253.411,125.785 250.078,126.451 246.5,126.5C 249.544,124.989 252.878,124.322 256.5,124.5 Z"/></g>
<g><path style="opacity:1" fill="#302f44" d="M 244.5,126.5 C 241.721,126.279 239.054,126.612 236.5,127.5C 231.586,127.362 226.919,128.028 222.5,129.5C 217.798,129.95 213.132,130.617 208.5,131.5C 206.473,131.662 204.473,131.495 202.5,131C 201.244,130.583 200.577,129.75 200.5,128.5C 209.094,127.009 217.761,126.009 226.5,125.5C 232.176,125.072 237.843,124.905 243.5,125C 244.056,125.383 244.389,125.883 244.5,126.5 Z"/></g>
<g><path style="opacity:1" fill="#bb0c0c" d="M 139.5,113.5 C 141.435,114.15 143.435,114.483 145.5,114.5C 150.682,114.557 150.682,115.224 145.5,116.5C 144.752,118.332 143.752,119.999 142.5,121.5C 144.743,122.474 147.076,122.808 149.5,122.5C 149.5,121.167 149.5,119.833 149.5,118.5C 151.167,118.5 152.833,118.5 154.5,118.5C 154.548,119.507 153.548,119.84 151.5,119.5C 151.5,120.5 151.5,121.5 151.5,122.5C 153.527,122.662 155.527,122.495 157.5,122C 158.056,121.617 158.389,121.117 158.5,120.5C 159.222,120.082 159.722,119.416 160,118.5C 160.399,118.728 160.565,119.062 160.5,119.5C 160.586,120.496 160.252,121.329 159.5,122C 161.833,122.667 164.167,122.667 166.5,122C 167.833,120.333 167.833,118.667 166.5,117C 167.737,116.768 168.737,116.268 169.5,115.5C 170.833,115.5 172.167,115.5 173.5,115.5C 173.025,118.082 173.692,120.082 175.5,121.5C 175.5,122.167 175.833,122.5 176.5,122.5C 178.833,122.5 181.167,122.5 183.5,122.5C 185.285,120.866 187.285,119.532 189.5,118.5C 188.439,121.622 187.105,124.622 185.5,127.5C 184.609,128.11 183.609,128.443 182.5,128.5C 166.125,126.078 149.792,124.078 133.5,122.5C 135.076,121.857 136.41,120.857 137.5,119.5C 139.104,118.713 139.771,117.38 139.5,115.5C 138.127,115.657 136.793,115.49 135.5,115C 137.058,114.79 138.391,114.29 139.5,113.5 Z"/></g>
<g><path style="opacity:1" fill="#2c2124" d="M 190.5,117.5 C 191.167,117.5 191.833,117.5 192.5,117.5C 192.5,118.167 192.5,118.833 192.5,119.5C 193.694,120.272 194.694,121.272 195.5,122.5C 195.833,123.833 196.167,125.167 196.5,126.5C 195.129,127.787 193.295,128.453 191,128.5C 188.967,128.494 187.134,128.161 185.5,127.5C 187.105,124.622 188.439,121.622 189.5,118.5C 190.167,118.5 190.5,118.167 190.5,117.5 Z"/></g>
<g><path style="opacity:1" fill="#f6dad8" d="M 203.5,121.5 C 201.052,122.473 198.385,122.806 195.5,122.5C 194.694,121.272 193.694,120.272 192.5,119.5C 195.711,119.988 198.544,119.321 201,117.5C 201.684,118.784 201.517,119.951 200.5,121C 201.448,121.483 202.448,121.649 203.5,121.5 Z"/></g>
<g><path style="opacity:1" fill="#de756f" d="M 251.5,116.5 C 250.833,118.167 250.167,119.833 249.5,121.5C 247.393,122.468 245.059,122.802 242.5,122.5C 242.989,121.005 243.655,119.671 244.5,118.5C 244.821,120.048 245.821,120.715 247.5,120.5C 247.5,119.167 247.5,117.833 247.5,116.5C 248.833,116.5 250.167,116.5 251.5,116.5 Z"/></g>
<g><path style="opacity:1" fill="#f5edef" d="M 137.5,119.5 C 136.41,120.857 135.076,121.857 133.5,122.5C 128.257,123.459 123.257,122.792 118.5,120.5C 121.067,118.145 124.067,117.311 127.5,118C 126.167,118.333 124.833,118.667 123.5,119C 124.333,119.167 125.167,119.333 126,119.5C 129.808,118.571 133.641,118.571 137.5,119.5 Z"/></g>
<g><path style="opacity:1" fill="#bc080b" d="M 253.5,113.5 C 255.099,113.232 256.432,113.566 257.5,114.5C 257.167,115.167 256.833,115.833 256.5,116.5C 257.183,118.176 258.517,118.843 260.5,118.5C 263.833,118.5 267.167,118.5 270.5,118.5C 270.082,119.222 269.416,119.722 268.5,120C 262.173,120.651 255.84,121.151 249.5,121.5C 250.167,119.833 250.833,118.167 251.5,116.5C 252.167,115.5 252.833,114.5 253.5,113.5 Z"/></g>
<g><path style="opacity:1" fill="#c97274" d="M 215.5,114.5 C 216.931,115.78 217.598,117.447 217.5,119.5C 216.5,119.5 215.5,119.5 214.5,119.5C 214.833,118.167 215.167,116.833 215.5,115.5C 215.5,115.167 215.5,114.833 215.5,114.5 Z"/></g>
<g><path style="opacity:1" fill="#d69b91" d="M 256.5,116.5 C 258.483,116.157 259.817,116.824 260.5,118.5C 258.517,118.843 257.183,118.176 256.5,116.5 Z"/></g>
<g><path style="opacity:1" fill="#d7807a" d="M 192.5,116.5 C 195.167,116.5 197.833,116.5 200.5,116.5C 201.5,116.5 202.5,116.5 203.5,116.5C 205.5,116.5 207.5,116.5 209.5,116.5C 207.925,118.56 205.925,120.226 203.5,121.5C 202.448,121.649 201.448,121.483 200.5,121C 201.517,119.951 201.684,118.784 201,117.5C 198.544,119.321 195.711,119.988 192.5,119.5C 192.5,118.833 192.5,118.167 192.5,117.5C 192.5,117.167 192.5,116.833 192.5,116.5 Z"/></g>
<g><path style="opacity:1" fill="#df9999" d="M 157.5,114.5 C 155.771,115.236 154.771,116.57 154.5,118.5C 152.833,118.5 151.167,118.5 149.5,118.5C 151.746,116.58 154.413,115.247 157.5,114.5 Z"/></g>
<g><path style="opacity:1" fill="#b90707" d="M 222.5,114.5 C 226.5,114.5 230.5,114.5 234.5,114.5C 234.202,117.265 233.202,119.765 231.5,122C 232.448,122.483 233.448,122.649 234.5,122.5C 236.167,122.5 237.833,122.5 239.5,122.5C 239.5,121.167 239.5,119.833 239.5,118.5C 239.389,117.883 239.056,117.383 238.5,117C 240.83,115.655 243.163,115.488 245.5,116.5C 245.137,117.183 244.804,117.85 244.5,118.5C 243.655,119.671 242.989,121.005 242.5,122.5C 237.167,123.5 231.833,124.5 226.5,125.5C 217.761,126.009 209.094,127.009 200.5,128.5C 198.938,128.267 197.605,127.6 196.5,126.5C 196.167,125.167 195.833,123.833 195.5,122.5C 198.385,122.806 201.052,122.473 203.5,121.5C 205.925,120.226 207.925,118.56 209.5,116.5C 210.167,116.167 210.833,115.833 211.5,115.5C 212.833,115.5 214.167,115.5 215.5,115.5C 215.167,116.833 214.833,118.167 214.5,119.5C 213.522,119.811 212.855,120.478 212.5,121.5C 214.765,122.647 217.098,122.814 219.5,122C 219.167,121.667 218.833,121.333 218.5,121C 219.73,118.694 221.063,116.527 222.5,114.5 Z"/></g>
<g><path style="opacity:1" fill="#e28d89" d="M 239.5,118.5 C 239.5,119.833 239.5,121.167 239.5,122.5C 237.833,122.5 236.167,122.5 234.5,122.5C 235.914,120.946 237.581,119.612 239.5,118.5 Z"/></g>
<g><path style="opacity:1" fill="#c96262" d="M 180.5,116.5 C 181.833,116.5 183.167,116.5 184.5,116.5C 186.5,116.5 188.5,116.5 190.5,116.5C 190.5,116.833 190.5,117.167 190.5,117.5C 190.5,118.167 190.167,118.5 189.5,118.5C 187.285,119.532 185.285,120.866 183.5,122.5C 183.5,121.5 183.5,120.5 183.5,119.5C 181.473,119.338 179.473,119.505 177.5,120C 176.748,120.671 176.414,121.504 176.5,122.5C 175.833,122.5 175.5,122.167 175.5,121.5C 175.714,119.856 175.38,118.356 174.5,117C 176.473,116.505 178.473,116.338 180.5,116.5 Z"/></g>
<g><path style="opacity:1" fill="#f8ebeb" d="M 183.5,122.5 C 181.167,122.5 178.833,122.5 176.5,122.5C 176.414,121.504 176.748,120.671 177.5,120C 179.473,119.505 181.473,119.338 183.5,119.5C 183.5,120.5 183.5,121.5 183.5,122.5 Z"/></g>
<g><path style="opacity:1" fill="#c7241f" d="M 119.5,112.5 C 121.5,112.833 123.5,113.167 125.5,113.5C 130.26,115.432 134.26,117.432 137.5,119.5C 133.641,118.571 129.808,118.571 126,119.5C 125.167,119.333 124.333,119.167 123.5,119C 124.833,118.667 126.167,118.333 127.5,118C 124.067,117.311 121.067,118.145 118.5,120.5C 117.167,120.5 116.5,119.833 116.5,118.5C 116.621,115.895 117.621,113.895 119.5,112.5 Z"/></g>
<g><path style="opacity:1" fill="#dec8cd" d="M 119.5,112.5 C 117.621,113.895 116.621,115.895 116.5,118.5C 114.958,119.301 113.292,119.634 111.5,119.5C 111.67,118.178 111.337,117.011 110.5,116C 117.167,115.333 117.167,114.667 110.5,114C 115.833,113.333 115.833,112.667 110.5,112C 113.368,110.617 116.368,109.784 119.5,109.5C 119.5,110.5 119.5,111.5 119.5,112.5 Z"/></g>
<g><path style="opacity:1" fill="#e9dadf" d="M 139.5,113.5 C 138.391,114.29 137.058,114.79 135.5,115C 136.793,115.49 138.127,115.657 139.5,115.5C 139.771,117.38 139.104,118.713 137.5,119.5C 134.26,117.432 130.26,115.432 125.5,113.5C 127.527,113.662 129.527,113.495 131.5,113C 123.5,112.333 123.5,111.667 131.5,111C 129.744,110.798 128.078,110.298 126.5,109.5C 129.88,107.945 132.714,106.278 135,104.5C 138.002,104.965 140.835,105.799 143.5,107C 141.032,110.869 138.032,111.369 134.5,108.5C 132.35,109.407 132.183,110.407 134,111.5C 135.567,112.856 137.4,113.523 139.5,113.5 Z"/></g>
<g><path style="opacity:1" fill="#f5e6e6" d="M 270.5,118.5 C 267.167,118.5 263.833,118.5 260.5,118.5C 259.817,116.824 258.483,116.157 256.5,116.5C 256.833,115.833 257.167,115.167 257.5,114.5C 258.339,113.359 259.006,112.026 259.5,110.5C 265.167,109.167 270.833,109.167 276.5,110.5C 276.167,111.167 275.833,111.833 275.5,112.5C 273.234,113.314 270.9,113.814 268.5,114C 270.5,114.333 272.5,114.667 274.5,115C 273.663,116.011 273.33,117.178 273.5,118.5C 272.5,118.5 271.5,118.5 270.5,118.5 Z"/></g>
<g><path style="opacity:1" fill="#f5f1f3" d="M 253.5,113.5 C 252.833,114.5 252.167,115.5 251.5,116.5C 250.167,116.5 248.833,116.5 247.5,116.5C 247.5,117.833 247.5,119.167 247.5,120.5C 245.821,120.715 244.821,120.048 244.5,118.5C 244.804,117.85 245.137,117.183 245.5,116.5C 243.163,115.488 240.83,115.655 238.5,117C 239.056,117.383 239.389,117.883 239.5,118.5C 237.581,119.612 235.914,120.946 234.5,122.5C 233.448,122.649 232.448,122.483 231.5,122C 233.202,119.765 234.202,117.265 234.5,114.5C 236.913,112.015 238.58,109.015 239.5,105.5C 240.667,105.167 241.833,104.833 243,104.5C 247.087,104.984 246.921,106.151 242.5,108C 244.481,108.605 244.815,109.605 243.5,111C 244.944,111.781 246.277,111.614 247.5,110.5C 248.35,105.314 251.35,103.48 256.5,105C 255.577,107.86 254.577,110.693 253.5,113.5 Z"/></g>
<g><path style="opacity:1" fill="#f4f0f2" d="M 222.5,114.5 C 221.063,116.527 219.73,118.694 218.5,121C 218.833,121.333 219.167,121.667 219.5,122C 217.098,122.814 214.765,122.647 212.5,121.5C 212.855,120.478 213.522,119.811 214.5,119.5C 215.5,119.5 216.5,119.5 217.5,119.5C 217.598,117.447 216.931,115.78 215.5,114.5C 218.639,110.272 217.639,108.938 212.5,110.5C 211.691,112.071 211.357,113.738 211.5,115.5C 210.833,115.833 210.167,116.167 209.5,116.5C 207.5,116.5 205.5,116.5 203.5,116.5C 204.14,113.712 205.807,111.879 208.5,111C 203.077,108.572 200.41,110.406 200.5,116.5C 197.833,116.5 195.167,116.5 192.5,116.5C 195.176,108.167 200.843,104.333 209.5,105C 211.633,107.677 213.3,107.677 214.5,105C 220.528,104.17 226.528,104.336 232.5,105.5C 231.754,106.736 231.421,108.07 231.5,109.5C 226.806,108.414 223.806,110.081 222.5,114.5 Z"/></g>
<g><path style="opacity:1" fill="#592f3f" d="M 203.5,116.5 C 202.5,116.5 201.5,116.5 200.5,116.5C 200.41,110.406 203.077,108.572 208.5,111C 205.807,111.879 204.14,113.712 203.5,116.5 Z"/></g>
<g><path style="opacity:1" fill="#512c43" d="M 215.5,114.5 C 215.5,114.833 215.5,115.167 215.5,115.5C 214.167,115.5 212.833,115.5 211.5,115.5C 211.357,113.738 211.691,112.071 212.5,110.5C 217.639,108.938 218.639,110.272 215.5,114.5 Z"/></g>
<g><path style="opacity:1" fill="#f2eff1" d="M 190.5,116.5 C 188.5,116.5 186.5,116.5 184.5,116.5C 184.961,114.45 185.628,112.45 186.5,110.5C 184.234,109.794 181.901,109.961 179.5,111C 180.5,111.333 181.5,111.667 182.5,112C 181.418,113.33 180.751,114.83 180.5,116.5C 178.473,116.338 176.473,116.505 174.5,117C 175.38,118.356 175.714,119.856 175.5,121.5C 173.692,120.082 173.025,118.082 173.5,115.5C 174.791,112.678 176.457,110.011 178.5,107.5C 181.158,106.003 183.991,105.003 187,104.5C 190.137,104.648 192.304,106.148 193.5,109C 192.817,111.561 191.817,114.061 190.5,116.5 Z"/></g>
<g><path style="opacity:1" fill="#5a3242" d="M 184.5,116.5 C 183.167,116.5 181.833,116.5 180.5,116.5C 180.751,114.83 181.418,113.33 182.5,112C 181.5,111.667 180.5,111.333 179.5,111C 181.901,109.961 184.234,109.794 186.5,110.5C 185.628,112.45 184.961,114.45 184.5,116.5 Z"/></g>
<g><path style="opacity:1" fill="#f5eff1" d="M 169.5,115.5 C 168.737,116.268 167.737,116.768 166.5,117C 167.833,118.667 167.833,120.333 166.5,122C 164.167,122.667 161.833,122.667 159.5,122C 160.252,121.329 160.586,120.496 160.5,119.5C 161.873,119.657 163.207,119.49 164.5,119C 162.685,116.73 160.352,116.064 157.5,117C 158.337,118.011 158.67,119.178 158.5,120.5C 158.389,121.117 158.056,121.617 157.5,122C 155.527,122.495 153.527,122.662 151.5,122.5C 151.5,121.5 151.5,120.5 151.5,119.5C 153.548,119.84 154.548,119.507 154.5,118.5C 154.771,116.57 155.771,115.236 157.5,114.5C 159.584,112.17 162.251,111.003 165.5,111C 164.5,110.667 163.5,110.333 162.5,110C 164.167,108.333 165.833,106.667 167.5,105C 169.579,104.192 171.579,104.359 173.5,105.5C 171.694,108.641 170.361,111.974 169.5,115.5 Z"/></g>
<g><path style="opacity:1" fill="#db8b89" d="M 160.5,119.5 C 160.565,119.062 160.399,118.728 160,118.5C 159.722,119.416 159.222,120.082 158.5,120.5C 158.67,119.178 158.337,118.011 157.5,117C 160.352,116.064 162.685,116.73 164.5,119C 163.207,119.49 161.873,119.657 160.5,119.5 Z"/></g>
<g><path style="opacity:1" fill="#f2eaec" d="M 157.5,114.5 C 154.413,115.247 151.746,116.58 149.5,118.5C 149.5,119.833 149.5,121.167 149.5,122.5C 147.076,122.808 144.743,122.474 142.5,121.5C 143.752,119.999 144.752,118.332 145.5,116.5C 150.682,115.224 150.682,114.557 145.5,114.5C 146.263,113.732 147.263,113.232 148.5,113C 145.833,112.333 145.833,111.667 148.5,111C 147.892,108.816 148.559,106.816 150.5,105C 155.16,103.839 157.16,105.672 156.5,110.5C 150.196,110.831 150.53,111.331 157.5,112C 156.5,112.333 155.5,112.667 154.5,113C 155.737,113.232 156.737,113.732 157.5,114.5 Z"/></g>
</svg>
